<svg xmlns="http://www.w3.org/2000/svg" viewBox="0 0 149.24 117.06"><defs><style>.cls-1{fill:#865f00;}</style></defs><g id="Layer_2" data-name="Layer 2"><g id="Layer_1-2" data-name="Layer 1"><g id="g3953"><path id="path3949" class="cls-1" d="M90.51,20.05l30.73,42.59L115.92,76l8,9.31,16,3.94-6.67-12h-2.67l-5.37-12,16,0,8.05,13.29-9.29,20-17.32,10.66-16-14.63L100,81.2l12-14.69L101.27,55.9,96,69.21,84,67.93l2.69,9.31L88.46,117l-9.33-1.29L78.54,0Z"/><path id="path3951" class="cls-1" d="M65.16,20.1l-34,42.7L37,76.09l-8.87,9.34-17.77,4,7.37-12h3l5.88-12-17.78,0L0,78.77,10.42,98.7l19.29,10.6L47.45,94.6l7.38-13.32L41.44,66.64,53.29,56l5.93,13.29L72.58,68l-3,9.33-3.84,39.78,10.38-1.32L78.36,0Z"/></g></g></g></svg>