<svg xmlns="http://www.w3.org/2000/svg" viewBox="0 0 40.52 1070.5"><defs><style>.cls-1{fill:#dc1d1d;}.cls-2{fill:#571a04;}.cls-3{fill:#865f00;}.cls-4{fill:#ffc343;}.cls-5{fill:#00b8c5;}.cls-6{fill:#308869;}.cls-7{fill:#ff9595;}.cls-8{fill:#fff17f;}.cls-9{fill:#287436;}.cls-10{fill:#b90069;}.cls-11{fill:#bf3a00;}</style></defs><g id="Layer_2" data-name="Layer 2"><g id="Layer_1-2" data-name="Layer 1"><polygon class="cls-1" points="18.79 833.17 34.52 864.63 18.79 893.46 0.45 862 18.79 833.17"/><polygon class="cls-2" points="18.5 891.05 34.23 922.5 18.5 951.33 0.16 919.88 18.5 891.05"/><polygon class="cls-3" points="19.21 949.63 34.94 981.08 19.21 1009.91 0.87 978.46 19.21 949.63"/><polygon class="cls-4" points="19.93 1010.21 35.65 1041.67 19.93 1070.5 1.58 1039.05 19.93 1010.21"/><polygon class="cls-5" points="18.79 775.88 34.52 807.33 18.79 836.16 0.45 804.71 18.79 775.88"/><polygon class="cls-6" points="19.5 715.29 35.23 746.75 19.5 775.58 1.16 744.13 19.5 715.29"/><polygon class="cls-7" points="24.79 0 40.52 31.45 24.79 60.28 6.45 28.83 24.79 0"/><polygon class="cls-6" points="23.5 59.3 39.23 90.75 23.5 119.58 5.16 88.13 23.5 59.3"/><polygon class="cls-5" points="24.79 119.88 40.52 151.33 24.79 180.16 6.45 148.71 24.79 119.88"/><polygon class="cls-1" points="24.79 179.17 40.52 210.63 24.79 239.46 6.45 208 24.79 179.17"/><polygon class="cls-2" points="23.5 241.05 39.23 272.5 23.5 301.33 5.16 269.88 23.5 241.05"/><polygon class="cls-3" points="22.21 301.63 37.94 333.08 22.21 361.92 3.87 330.46 22.21 301.63"/><polygon class="cls-4" points="20.93 362.21 36.65 393.67 20.93 422.5 2.58 391.05 20.93 362.21"/><polygon class="cls-8" points="20.93 421.51 36.65 452.96 20.93 481.79 2.58 450.34 20.93 421.51"/><polygon class="cls-9" points="19.64 479.51 35.36 510.97 19.64 539.8 1.29 508.35 19.64 479.51"/><polygon class="cls-10" points="19.64 540.1 35.36 571.55 19.64 600.38 1.29 568.93 19.64 540.1"/><polygon class="cls-11" points="19.64 598.1 35.36 629.56 19.64 658.39 1.29 626.93 19.64 598.1"/><polygon class="cls-7" points="18.35 656.11 34.07 687.56 18.35 716.39 0 684.94 18.35 656.11"/></g></g></svg>