<?xml version="1.0" encoding="UTF-8" standalone="no"?>
<svg
   xmlns:dc="http://purl.org/dc/elements/1.1/"
   xmlns:cc="http://creativecommons.org/ns#"
   xmlns:rdf="http://www.w3.org/1999/02/22-rdf-syntax-ns#"
   xmlns:svg="http://www.w3.org/2000/svg"
   xmlns="http://www.w3.org/2000/svg"
   xmlns:xlink="http://www.w3.org/1999/xlink"
   xmlns:sodipodi="http://sodipodi.sourceforge.net/DTD/sodipodi-0.dtd"
   xmlns:inkscape="http://www.inkscape.org/namespaces/inkscape"
   width="799.03564mm"
   height="442.64069mm"
   viewBox="0 0 799.03558 442.64068"
   version="1.1"
   id="svg8"
   inkscape:version="1.0 (4035a4fb49, 2020-05-01)"
   sodipodi:docname="clouds.svg">
  <defs
     id="defs2">
    <linearGradient
       id="linearGradient1274"
       inkscape:collect="always">
      <stop
         id="stop1270"
         offset="0"
         style="stop-color:#66d3dd;stop-opacity:1;" />
      <stop
         id="stop1272"
         offset="1"
         style="stop-color:#66d3dd;stop-opacity:0;" />
    </linearGradient>
    <linearGradient
       id="linearGradient1250"
       inkscape:collect="always">
      <stop
         id="stop1246"
         offset="0"
         style="stop-color:#66d3dd;stop-opacity:1;" />
      <stop
         id="stop1248"
         offset="1"
         style="stop-color:#66d3dd;stop-opacity:0;" />
    </linearGradient>
    <linearGradient
       inkscape:collect="always"
       id="linearGradient1202">
      <stop
         style="stop-color:#63d2dc;stop-opacity:1"
         offset="0"
         id="stop1198" />
      <stop
         id="stop1206"
         offset="0.29158583"
         style="stop-color:#a2e3e9;stop-opacity:1;" />
      <stop
         id="stop1204"
         offset="0.57835299"
         style="stop-color:#c7eef2;stop-opacity:1;" />
      <stop
         style="stop-color:#fdfefe;stop-opacity:1"
         offset="1"
         id="stop1200" />
    </linearGradient>
    <linearGradient
       id="linearGradient1194"
       inkscape:collect="always">
      <stop
         id="stop1190"
         offset="0"
         style="stop-color:#76dfe8;stop-opacity:0" />
      <stop
         id="stop1192"
         offset="1"
         style="stop-color:#66d3dd;stop-opacity:1" />
    </linearGradient>
    <linearGradient
       id="linearGradient1158"
       inkscape:collect="always">
      <stop
         id="stop1154"
         offset="0"
         style="stop-color:#63d2dc;stop-opacity:1" />
      <stop
         id="stop1156"
         offset="1"
         style="stop-color:#fdfefe;stop-opacity:1" />
    </linearGradient>
    <linearGradient
       inkscape:collect="always"
       id="linearGradient931">
      <stop
         style="stop-color:#72b3c7;stop-opacity:1;"
         offset="0"
         id="stop927" />
      <stop
         style="stop-color:#fdfefe;stop-opacity:1"
         offset="1"
         id="stop929" />
    </linearGradient>
    <style
       id="style833">.cls-1{fill:url(#linear-gradient);}.cls-2{fill:url(#linear-gradient-2);}.cls-3{fill:url(#linear-gradient-3);}.cls-4{fill:url(#linear-gradient-4);}.cls-5{fill:#85b2cc;}.cls-6{fill:url(#linear-gradient-5);}.cls-7{fill:url(#linear-gradient-6);}.cls-8{fill:url(#linear-gradient-7);}.cls-9{fill:url(#linear-gradient-8);}</style>
    <linearGradient
       gradientUnits="userSpaceOnUse"
       y2="18.5"
       x2="712.5"
       y1="1072.5"
       x1="712.5"
       id="linear-gradient"
       gradientTransform="matrix(0.26458333,0,0,0.26996249,-499.59552,-47.418855)">
      <stop
         id="stop835"
         stop-color="#b6fffe"
         offset="0" />
      <stop
         id="stop837"
         stop-color="#00b8c5"
         offset="1" />
    </linearGradient>
    <linearGradient
       gradientUnits="userSpaceOnUse"
       y2="1054.78"
       x2="1558.6"
       y1="767.95001"
       x1="1558.6"
       id="linear-gradient-2"
       gradientTransform="matrix(0.26458333,0,0,0.26458333,-89.718146,14.744349)">
      <stop
         id="stop840"
         stop-color="#fff"
         offset="0" />
      <stop
         id="stop842"
         stop-color="#c0d7e4"
         offset="0.45" />
      <stop
         id="stop844"
         stop-color="#95bcd3"
         offset="0.8" />
      <stop
         id="stop846"
         stop-color="#85b2cc"
         offset="0.98" />
    </linearGradient>
    <linearGradient
       xlink:href="#linearGradient931"
       gradientUnits="userSpaceOnUse"
       y2="933.05762"
       x2="856.73352"
       y1="673.92999"
       x1="858.09998"
       id="linear-gradient-3"
       gradientTransform="matrix(0.27660631,0,0,0.29101934,-104.38177,-41.413973)">
      <stop
         id="stop849"
         stop-color="#fff"
         offset="0.11" />
      <stop
         id="stop851"
         stop-color="#f3f8fa"
         offset="0.16479464" />
      <stop
         id="stop853"
         stop-color="#d5e4ed"
         offset="0.4449676" />
      <stop
         id="stop855"
         stop-color="#a3c5d9"
         offset="0.7448439" />
      <stop
         id="stop857"
         stop-color="#85b2cc"
         offset="1" />
    </linearGradient>
    <linearGradient
       gradientUnits="userSpaceOnUse"
       y2="736"
       x2="661.94"
       y1="-104.88"
       x1="661.94"
       id="linear-gradient-4"
       gradientTransform="matrix(0.26458333,0,0,0.26458333,-96.521717,-20.785413)">
      <stop
         id="stop860"
         stop-color="#fff"
         offset="0" />
      <stop
         id="stop862"
         stop-color="#fafcfd"
         offset="0.15" />
      <stop
         id="stop864"
         stop-color="#eaf2f6"
         offset="0.3737846" />
      <stop
         id="stop866"
         stop-color="#d0e2ec"
         offset="0.5684945" />
      <stop
         id="stop868"
         stop-color="#adcbdd"
         offset="0.70845282" />
      <stop
         id="stop870"
         stop-color="#85b2cc"
         offset="1" />
    </linearGradient>
    <linearGradient
       gradientUnits="userSpaceOnUse"
       y2="742.94"
       x2="855.65997"
       y1="31.719999"
       x1="855.65997"
       id="linear-gradient-5"
       gradientTransform="matrix(0.26458333,0,0,0.26458333,-96.521717,-20.785413)">
      <stop
         id="stop873"
         stop-color="#fff"
         offset="0.12" />
      <stop
         id="stop875"
         stop-color="#fbfcfd"
         offset="0.27" />
      <stop
         id="stop877"
         stop-color="#eef4f8"
         offset="0.42" />
      <stop
         id="stop879"
         stop-color="#d9e7ef"
         offset="0.57" />
      <stop
         id="stop881"
         stop-color="#bbd4e2"
         offset="0.73" />
      <stop
         id="stop883"
         stop-color="#95bcd3"
         offset="0.89" />
      <stop
         id="stop885"
         stop-color="#85b2cc"
         offset="0.95" />
    </linearGradient>
    <linearGradient
       gradientUnits="userSpaceOnUse"
       y2="759.47998"
       x2="776"
       y1="148.25285"
       x1="824.65289"
       id="linear-gradient-6"
       gradientTransform="matrix(0.26458333,0,0,0.26458333,-96.521717,-20.785413)">
      <stop
         id="stop888"
         stop-opacity="0"
         stop-color="#fff"
         offset="0.03498398" />
      <stop
         id="stop890"
         stop-opacity="0.03"
         stop-color="#fbfdfd"
         offset="0.2105152" />
      <stop
         id="stop892"
         stop-opacity="0.23"
         stop-color="#e3edf3"
         offset="0.21899456" />
      <stop
         id="stop894"
         stop-opacity="0.42"
         stop-color="#ccdfea"
         offset="0.22881874" />
      <stop
         id="stop896"
         stop-opacity="0.58"
         stop-color="#b9d3e2"
         offset="0.28413981" />
      <stop
         id="stop898"
         stop-opacity="0.71"
         stop-color="#a9c8db"
         offset="0.42693427" />
      <stop
         id="stop900"
         stop-opacity="0.82"
         stop-color="#9bc0d5"
         offset="0.61994827" />
      <stop
         id="stop902"
         stop-opacity="0.9"
         stop-color="#91bad1"
         offset="0.6813553" />
      <stop
         id="stop904"
         stop-opacity="0.96"
         stop-color="#8ab5ce"
         offset="0.77466494" />
      <stop
         id="stop906"
         stop-opacity="0.99"
         stop-color="#86b3cc"
         offset="0.83875769" />
      <stop
         id="stop908"
         stop-color="#85b2cc"
         offset="1" />
    </linearGradient>
    <linearGradient
       gradientUnits="userSpaceOnUse"
       y2="603.81494"
       x2="1528.6761"
       y1="233.5701"
       x1="1515.3848"
       id="linear-gradient-7"
       gradientTransform="matrix(0.14416823,0,0,0.14386421,-96.580565,52.627351)">
      <stop
         id="stop911"
         stop-color="#fff"
         offset="0" />
      <stop
         id="stop913"
         stop-color="#cadee9"
         offset="0.53524154" />
      <stop
         id="stop915"
         stop-color="#85b2cc"
         offset="1" />
    </linearGradient>
    <linearGradient
       spreadMethod="pad"
       gradientUnits="userSpaceOnUse"
       y2="844.71002"
       x2="446.14001"
       y1="564.70001"
       x1="446.14001"
       id="linear-gradient-8"
       gradientTransform="matrix(0.26458333,0,0,0.26458333,-96.521717,-20.785413)">
      <stop
         id="stop918"
         stop-color="#fff"
         offset="0" />
      <stop
         id="stop920"
         stop-color="#f3f8fa"
         offset="0.16" />
      <stop
         id="stop922"
         stop-color="#d5e4ed"
         offset="0.43" />
      <stop
         id="stop924"
         stop-color="#a3c5d9"
         offset="0.8" />
      <stop
         style="stop-color:#78b6c9;stop-opacity:1"
         id="stop926"
         stop-color="#85b2cc"
         offset="1" />
    </linearGradient>
    <linearGradient
       gradientTransform="matrix(1.0177014,0,0,1.0260466,10.580796,-8.1002107)"
       gradientUnits="userSpaceOnUse"
       y2="-74.064941"
       x2="67.901604"
       y1="258.63217"
       x1="66.073708"
       id="linearGradient1152"
       xlink:href="#linearGradient1202"
       inkscape:collect="always" />
    <linearGradient
       gradientTransform="matrix(1.0177014,0,0,1.0260466,10.580796,-8.1002107)"
       gradientUnits="userSpaceOnUse"
       y2="33.313705"
       x2="139.31155"
       y1="288.28882"
       x1="142.86919"
       id="linearGradient1168"
       xlink:href="#linearGradient1158"
       inkscape:collect="always" />
    <linearGradient
       gradientTransform="matrix(0.97327194,0,0,0.98881414,67.966406,-98.187508)"
       gradientUnits="userSpaceOnUse"
       y2="143.62119"
       x2="-16.860085"
       y1="310.08148"
       x1="-19.037243"
       id="linearGradient1180"
       xlink:href="#linearGradient1158"
       inkscape:collect="always" />
    <linearGradient
       gradientTransform="matrix(1.0177014,0,0,0.8739614,-3.3304028,64.2405)"
       gradientUnits="userSpaceOnUse"
       y2="178.87419"
       x2="183.14409"
       y1="342.93652"
       x1="184.22964"
       id="linearGradient1196"
       xlink:href="#linearGradient1194"
       inkscape:collect="always" />
    <linearGradient
       gradientTransform="translate(-168.57738,145.14286)"
       gradientUnits="userSpaceOnUse"
       y2="279.52899"
       x2="166.75439"
       y1="260.28558"
       x1="167.1862"
       id="linearGradient1252"
       xlink:href="#linearGradient1250"
       inkscape:collect="always" />
    <linearGradient
       gradientTransform="translate(52.160714,133.80357)"
       gradientUnits="userSpaceOnUse"
       y2="302.29483"
       x2="111.9836"
       y1="273.56863"
       x1="111.26968"
       id="linearGradient1276"
       xlink:href="#linearGradient1274"
       inkscape:collect="always" />
  </defs>
  <sodipodi:namedview
     id="base"
     pagecolor="#ffffff"
     bordercolor="#666666"
     borderopacity="1.0"
     inkscape:pageopacity="0.0"
     inkscape:pageshadow="2"
     inkscape:zoom="0.35"
     inkscape:cx="1625.5963"
     inkscape:cy="970.09397"
     inkscape:document-units="mm"
     inkscape:current-layer="layer1"
     inkscape:document-rotation="0"
     showgrid="false"
     inkscape:snap-global="false"
     inkscape:window-width="1920"
     inkscape:window-height="1186"
     inkscape:window-x="-11"
     inkscape:window-y="-11"
     inkscape:window-maximized="1" />
  <metadata
     id="metadata5">
    <rdf:RDF>
      <cc:Work
         rdf:about="">
        <dc:format>image/svg+xml</dc:format>
        <dc:type
           rdf:resource="http://purl.org/dc/dcmitype/StillImage" />
        <dc:title></dc:title>
      </cc:Work>
    </rdf:RDF>
  </metadata>
  <g
     inkscape:label="Layer 1"
     inkscape:groupmode="layer"
     id="layer1"
     transform="translate(303.5705,133.63125)"
     style="display:inline">
    <path
       sodipodi:nodetypes="csssssssssssssssssssssssssssssssssssssssssssscsssccsssc"
       id="path1188"
       d="m -229.36745,296.29794 c 5.38977,-2.62647 11.02689,-4.10218 16.86403,-5.606 1.09849,-0.283 3.26401,0.0505 3.26401,-0.93434 0,-0.64877 -31.58907,-6.94396 -26.11205,-16.35083 4.13667,-7.10481 16.78569,-5.60598 25.02404,-5.60598 0.92463,0 2.49576,1.23747 2.72001,0.46717 0.5344,-1.8357 0.0443,-4.70019 2.17601,-6.07318 8.97175,-5.77844 30.87861,-16.40641 42.97608,-11.212 7.41359,3.18324 19.37439,9.847 12.51203,18.68667 -1.07192,1.38077 -3.48311,1.58965 -4.352,2.33583 -1.52865,1.31274 5.98401,1.45636 5.98401,5.13884 0,2.43502 -5.80706,6.54031 1.08799,6.54031 3.82496,0 6.79826,-0.38879 10.33603,-1.4015 14.21241,-4.06833 26.63439,-8.64025 41.888083,-10.27765 5.414089,-0.58117 9.660807,-1.86866 15.232032,-1.86866 1.632004,0 4.89601,1.40149 4.89601,0 0,-0.009 -9.61313,-3.29786 -10.880024,-4.20449 -11.083427,-7.93169 -16.735921,-19.46955 -20.672031,-31.30017 -1.28734,-3.86927 -1.61298,-11.00293 1.08799,-14.48216 3.7621,-4.8461 16.134434,-16.92059 22.304047,-18.68666 2.255315,-0.64559 11.476573,0.42203 13.056027,-0.93433 1.831625,-1.57294 -0.900377,-9.0697 -0.544,-11.212 1.190671,-7.15751 11.140688,-12.90305 18.496037,-14.48216 25.28849,-5.4292 46.1493286,-2.69925 68.000142,9.81049 8.178581,4.6823 13.51136,14.67768 21.760044,18.2195 9.23331,3.9646 36.949104,0.46716 47.872103,0.46716 15.7106,0 83.78871,12.62428 94.65618,21.95683 1.08803,0.93433 2.17603,-1.86867 3.26403,-2.803 1.22958,-1.05591 -3.8533,-2.00912 -2.33148,-2.33583 10.44768,-2.24301 4.62585,-12.51859 15.18957,-3.4469 4.40016,3.77869 0.82549,-10.81485 -1.15163,-15.90843 -1.20182,-3.09626 7.53849,-8.13593 5.32703,-10.9846 -6.75776,-8.70495 28.21236,-15.53423 36.39871,-19.36883 27.28769,-12.78197 47.45884,2.27319 66.79204,18.87577 1.65572,1.42187 7.36167,-4.79604 9.24802,-5.606 5.69344,-2.44464 25.44322,3.39935 31.06455,7.01988 4.01299,2.58464 7.39719,5.41807 10.88002,8.409 2.81187,2.4147 3.80802,6.40735 3.80802,9.81049 0,19.34439 -17.57602,10.92395 -22.90454,20.07578 -1.60812,2.76196 19.07109,6.41828 24.48004,8.40899 11.41468,4.20106 -1.26674,20.71552 2.72002,27.56283 3.58938,6.16488 33.14416,0.32332 39.16807,0 21.88132,-1.17444 31.14975,-0.20729 47.87211,8.40899 1.72557,0.88913 5.48022,2.87211 5.98399,3.73735 0.39669,0.68129 -0.64319,3.18496 0,3.73732 1.57758,1.35476 3.65727,-4.87993 3.80803,-5.13882 2.74606,-4.71647 12.79653,-5.93663 17.95202,-4.67168 6.97902,1.71237 14.88865,14.08947 16.32005,19.621 3.17108,12.25436 0.73625,14.02757 -8.90672,15.06269 -43.47622,4.66694 -100.02014,2.22247 -143.95761,2.22247 -200.88058,0.78028 -556.19785,-1.35761 -583.07585,-0.40078 -4.22077,-0.16431 -59.60344,2.33186 -61.06013,1.0809 -3.72692,-3.20053 7.88753,-2.80299 13.05603,-2.80299 12.21554,0 30.91405,-14.4376 43.01474,-12.35928 4.99689,0.85821 9.53821,2.80299 14.68803,2.80299"
       style="opacity:1;fill:url(#linearGradient1196);fill-opacity:1;stroke-width:3.88086" />
    <path
       id="path1182"
       d="m 126.60638,387.8988 c 22.81232,-4.11052 61.95003,-5.63429 82.14417,6.58156 22.05149,13.33937 -20.63816,16.91312 -11.42402,22.48694 13.03211,7.88338 31.85197,4.01574 46.24011,4.38771 19.9398,0.51544 40.32766,1.55012 59.8401,5.4846 8.96025,1.80675 -13.53884,8.03726 -15.23201,8.22694 -17.03051,1.90779 -34.70607,-1.09692 -51.68012,-1.09692 -44.21393,0 -87.45185,5.90707 -131.64828,2.19384 -7.412945,-0.62281 -25.901165,0.21262 -31.008056,-4.93617 -15.454936,-15.58165 26.502326,-21.52117 34.272066,-24.13233 2.47711,-0.83247 4.38621,-6.0503 7.61602,-7.67844 2.30731,-1.16313 10.08937,0.49732 11.42402,-2.19387 0.60208,-1.21401 -1.39619,-2.98003 -0.544,-3.83922 3.65401,-3.68397 6.19937,-0.79697 0,-5.48464 z"
       style="opacity:1;fill:url(#linearGradient1276);fill-opacity:1;stroke-width:4.20499" />
    <path
       sodipodi:nodetypes="cccccczcccccccccccczzcccccccccccccccc"
       id="path1144"
       d="m 81.014457,-133.62951 c -10.319707,0.78886 -41.253879,13.78913 -49.329379,19.93177 -8.264589,6.13572 -15.869354,20.928484 -18.797571,31.089474 -0.557594,1.807521 -0.337716,3.951358 -1.237798,5.576465 -6.5167667,1.857761 -9.8620407,10.248146 -6.9218277,16.278375 0.291662,5.108137 -3.215752,28.467429 -5.912711,32.413378 -3.376934,3.97491 -6.1159289,8.947017 -5.3662033,15.981785 0.7497256,7.0347678 9.6091307,32.218328 14.023961,33.965697 2.84234,1.368694 1.564358,15.111044 4.400291,16.421666 1.321863,0.983469 -4.744931,6.803818 -6.202687,7.623609 -2.660851,2.227329 -3.186153,1.033612 -6.29320604,1.912918 -2.03819596,0.612048 -3.05910196,-0.693954 -7.02776886,4.665522 -3.3819961,5.215827 -6.3909641,10.936953 -11.4410081,14.744029 -8.901238,9.87574 13.4196971,52.365382 24.227865,56.543832 -2.546238,9.13031 -4.70222119,10.06523 -1.5999042,18.82128 2.613828,18.67777 8.2346002,26.27929 12.1661482,35.4674 2.067628,5.06943 -4.328581,10.49781 1.237207,14.4227 3.930241,2.29371 8.450479,2.13694 10.704337,6.33914 0.597448,2.64525 -10.520234,27.65319 -12.701778,28.51644 -8.3171282,4.32606 -22.3466785,21.806 -23.7206483,28.91729 -1.3739697,7.11129 59.8416413,4.95278 116.9977843,5.03005 57.15614,0.0773 95.31138,-4.14042 111.07195,-17.56718 7.44593,-18.51819 -22.70697,-26.04085 -16.12264,-31.24882 4.1666,-4.96968 1.31207,-19.77798 2.29843,-25.93491 1.55368,-11.61409 -2.08077,-20.81014 -4.59762,-32.38701 -2.27486,-11.27865 -2.17516,-32.58414 -9.98185,-41.02364 -3.23123,-3.77957 -7.04764,-7.46884 -8.41387,-12.41137 -0.99255,-6.257921 2.26307,-12.37901 0.96283,-18.635854 -0.90875,-7.895118 7.78751,-16.675884 6.23455,-24.453089 -2.29339,-8.587081 1.44945,-29.943819 -3.6696,-37.100325 -2.32285,-4.772967 -0.73521,-10.185802 0.46865,-15.0315828 2.1492,-10.3711171 13.81579,-26.6973972 8.34853,-35.5013472 -3.22739,-4.947253 0.12239,-28.79215 -6.49368,-35.442904 -3.16942,-0.760101 -3.23391,-5.085774 -3.72319,-8.592164 -2.01828,-6.596773 -3.88924,-16.168787 -8.59614,-21.546412 -7.34466,-9.686362 -13.22271,-22.410112 -24.29566,-26.752122 -6.02004,-2.37069 -64.186905,-11.17788 -70.695793,-11.03409 z"
       style="opacity:1;fill:url(#linearGradient1152);fill-opacity:1;stroke-width:4.20499" />
    <path
       sodipodi:nodetypes="cccccccccccccccccccscccccccccccccccccc"
       id="path1160"
       d="m 153.18132,-64.316494 c -15.89117,0.204581 -54.896354,10.862472 -65.762901,22.860156 -6.89215,8.99432 -7.139548,22.270735 -1.209999,31.8224332 -0.137324,1.971891 -2.617114,1.653897 -3.813728,2.605446 -4.366151,2.645084 -9.072113,37.9950138 -13.002196,41.2956458 -4.026579,4.252983 -4.929637,10.654968 -3.623186,16.217276 2.230247,16.530162 20.013447,30.479476 34.76905,38.217846 5.61913,1.8571 11.31167,-0.671934 16.8163,-1.733608 5.02715,-1.055247 10.96339,-1.084378 15.00037,2.587828 3.49215,3.48202 3.49451,8.82009 3.23635,13.426441 -0.07,4.97016 0.59708,10.47868 -2.44117,14.77787 -2.51129,3.8427 -7.1821,4.92944 -11.11776,6.6476 -4.17812,1.63594 -8.20456,3.92705 -11.1031,7.44889 -4.4688,5.01545 -5.54674,29.8834 -6.44929,36.41443 -0.637,3.19259 -1.25189,6.85422 -3.91203,9.00979 -4.338947,2.5671 -10.035957,1.69826 -13.957642,5.15362 -5.186599,3.55851 -8.318784,10.70785 -5.859811,16.80582 2.611053,7.36409 9.003067,12.24942 14.371729,17.51353 2.889574,2.80453 -2.235543,17.45592 -11.10005,24.25284 38.542624,0.57213 59.193834,-21.94606 101.702164,-18.54869 43.98158,3.51511 27.80988,19.24876 39.71732,18.67839 5.43658,-5.47781 -4.73016,-2.32866 -4.20084,-10.16034 0.30016,-4.23793 -0.12727,-9.25222 -3.75105,-12.03305 -5.45151,-4.41568 -12.35083,-7.29197 -16.29369,-13.38395 -1.68244,-2.39489 -2.06028,-5.7858 -0.27675,-8.23553 1.75817,-2.81198 6.63132,-3.94467 8.25361,-6.87145 2.67177,-4.19894 3.64409,-9.18172 5.04835,-13.89493 1.7162,-6.92865 10.78086,-35.73881 8.75729,-42.60548 -2.28271,-9.49998 0.30619,-18.14536 -5.56665,-25.83896 -2.64032,-4.31099 -2.95892,-10.020011 -0.45369,-14.469001 2.98188,-6.399616 4.30049,-12.023186 5.03046,-19.313 0.85708,-6.880183 -3.69386,-27.037009 -6.98068,-33.208218 -1.41544,-2.702374 -5.31646,-9.466773 -8.31093,-10.200731 -2.8521,-0.947068 -6.41204,-2.122275 -7.21974,-5.440097 -1.26407,-4.761611 5.42797,-35.0842174 5.22279,-39.884082 0.37209,-14.545263 -13.29703,-28.593626 -22.27599,-39.724295 -8.09503,-9.968271 -11.00704,-8.103044 -23.8755,-9.891249 -1.77849,-0.235128 -3.57426,-0.327583 -5.36741,-0.299191 z"
       style="opacity:1;fill:url(#linearGradient1168);fill-opacity:1;stroke-width:4.20499" />
    <path
       sodipodi:nodetypes="csssssssssssscssscscsc"
       id="path1170"
       d="m 10.628427,111.78213 c -12.9117106,-9.90502 -6.7856126,-18.752514 4.162016,-24.313754 1.740538,-0.88416 7.668863,0.66564 8.844281,-0.52855 1.060982,-1.07792 -0.85785,-4.41405 0.520251,-5.81416 6.941795,-7.052649 20.001457,-12.362259 31.215112,-9.514079 11.062335,2.80975 29.055973,17.601239 22.89108,30.127913 -0.729163,1.48162 -9.691189,6.53941 -6.763272,9.51408 3.563895,3.62082 12.269384,3.12788 14.046797,12.15687 1.340776,6.81093 -7.009393,12.7139 -3.641761,19.55671 2.503429,5.08683 10.815638,0.94571 13.526547,3.69994 3.983702,4.04731 -2.144851,14.18634 5.722772,15.32822 3.5282,0.51208 3.22721,-0.10737 5.20252,-2.11423 0.74589,-0.75783 2.0748,0.39563 3.12151,0.52855 4.13706,0.5254 23.23126,6.50538 24.9721,10.04264 -7.22131,0.0664 -16.76472,3.71056 -27.53436,4.12326 -10.769642,0.41268 -22.22153,0.88467 -34.347821,1.18827 -12.12629,0.3036 -24.926982,-2.85198 -36.218228,-3.11287 -11.291246,-0.26089 -21.617046,-0.91788 -29.8815566,-2.19865 -3.062635,-9.33464 14.5670496,-14.09783 14.5670496,-20.61384 0,-0.21527 0.129807,-2.0483 0,-2.11424 C 9.2830855,141.7552 4.5035024,134.7988 11.148681,121.29622 c 1.554494,-3.15864 -1.4270555,-5.82893 -0.520254,-9.51409 z"
       style="opacity:1;fill:url(#linearGradient1180);fill-opacity:1;stroke-width:4.03688" />
    <path
       id="path1184"
       d="m -101.26371,404.2757 c -0.79643,0.33015 1.270169,0.55175 0.78995,0.0309 -0.26266,-0.0248 -0.52597,-0.0473 -0.78995,-0.0309 z m -1.30592,0.004 -0.10534,-0.004 z m -0.50487,0.002 c 0.32771,-0.002 0.5578,-0.003 0,0 z m 2.50847,0.79758 c -1.87401,0.83829 -3.69428,1.89071 -5.58701,2.73323 -2.0561,1.12525 -4.54038,2.36366 -5.31352,4.75973 -0.37651,2.12024 2.00863,3.33653 3.7419,3.66451 4.80744,1.05344 9.641217,2.03629 14.55252,2.47059 17.225357,1.60585 34.545053,0.59886 51.788022,-0.15172 15.86472,-0.72221 31.7344701,-1.72891 47.6221061,-1.56306 6.0138999,0.0945 12.0276299,0.61698 17.9078099,1.93088 8.86683,1.7724 18.00235,3.64528 27.03981,1.98946 10.15873,-1.51032 19.43903,-6.48993 29.56072,-8.11803 8.3202,-0.21228 15.63134,5.72541 24.033362,4.63274 5.759,-0.901 11.99195,-0.45631 17.18504,-3.55479 0.85475,-1.33744 -0.92928,-2.30342 -1.89229,-2.82563 -3.81107,-2.36461 -8.8347,-1.1825 -12.1031,1.59719 -2.4129,1.56799 -5.40846,1.98319 -8.180502,1.31426 -6.13407,-0.85585 -12.28106,-1.83392 -18.49456,-1.69763 -9.33792,-0.0673 -18.67611,0.11678 -28.01379,0.0804 -9.01678,0.11786 -18.01455,0.84333 -27.0015,1.47451 -12.57895,-0.49121 -24.6316699,-5.71554 -37.317276,-4.84029 -20.23847,-0.0805 -40.513359,1.7284 -60.721524,-0.0928 -8.578313,-0.29752 -17.354371,0.41064 -25.721308,-1.89181 -1.025771,-0.59935 -1.771064,-1.97111 -3.08491,-1.91182 z"
       style="opacity:1;fill:url(#linearGradient1252);fill-opacity:1;stroke-width:4.20499" />
    <path
       sodipodi:nodetypes="ccsssssssssc"
       id="path1186"
       d="m 6.3961511,170.95132 c 0,-0.69036 -0.17781,-4.88921 0.544003,-5.48461 8.3903999,-6.92117 48.2199829,-21.0393 57.1201179,-12.06618 7.940406,8.00552 -12.182645,11.44559 -3.808008,14.26002 8.65786,2.90961 18.712229,5.48462 27.744057,5.48462 11.553084,0 18.324639,2.7013 29.376059,-0.54847 l 13.05603,-3.83923 c 0.52225,-0.15357 1.63201,0.54846 1.63201,0 0,-0.91419 -3.55613,3.45938 -8.16002,4.38769 -7.54362,1.5211 -15.3416,2.19386 -23.39206,2.19386 -21.686036,0 -46.103141,2.5026 -69.632139,1.09691 -7.460614,-0.44571 -19.680753,0.96694 -24.4800499,-5.48461 z"
       style="opacity:1;fill:#66d3dd;fill-opacity:1;stroke-width:4.20499" />
  </g>
</svg>
