<svg xmlns="http://www.w3.org/2000/svg" xmlns:xlink="http://www.w3.org/1999/xlink" viewBox="0 0 634.45 633.46"><defs><style>.cls-1{fill:url(#linear-gradient);}</style><linearGradient id="linear-gradient" x1="-448.23" y1="-3895.68" x2="-449.62" y2="-4165.96" gradientTransform="matrix(0.75, 0, 0, -0.75, 654.16, -2476.3)" gradientUnits="userSpaceOnUse"><stop offset="0" stop-color="#f7f7f2"/><stop offset="1" stop-color="#f7f7f2" stop-opacity="0"/></linearGradient></defs><g id="Layer_2" data-name="Layer 2"><g id="Layer_1-2" data-name="Layer 1"><path id="path20" class="cls-1" d="M352,0C296.34-.62,240,22.93,204.46,66c-31.29,36.22-47.81,86.27-38.37,133.64,2.26,13.69,7.87,26.7,11.19,40-6.68,18.88-28.77,28.62-32.14,49.1-6.18,27.85,5.55,56.89,24.21,77.58,8.21,15.95,11.86,35.68,27.42,46.68a87.62,87.62,0,0,0,38.08,12.09c3.15,1.24,9.29.12,9.91,4.31-2.07,5.59-9.37,7.66-14.86,7.32-7.82-1.33-14.36-6.31-21.9-8.56-42.37-18.95-96.49-2.08-122.22,35.79C68,490.13,69.23,525,81.28,553.22c2.54,7,7,13.11,9.78,19.84,1.38,9.56-8.6,16.33-17.2,17.19C55.09,594.94,37.41,603,19,608.86c-5.85,2.61-13.56,3.4-17.26,9.14-3.26,4.39-2,12.17,4.35,12.75,9.32,2,18.85-.87,28.24.45,190.16.26,380.56,7.36,570.5-5,14.38.84,26.88-12.72,25.79-26.79a105.91,105.91,0,0,1,3.25-26.72c2.26-14.4-1.72-31.71-15.58-39.13-13.79-8.38-31.42-7.12-45.86-1.21-25.22.55-43.79-31.63-29.83-52.72,9.32-18.75,30.66-25.78,45.48-39.13,32.44-30.26,42.29-81.95,22.07-121.52-9.24-20.89-25.31-37.64-39.26-55.38-10.63-23.33-6.75-49.72-1.93-74,5.28-61.91-29.45-123.94-82.74-155.55C446.53,8.94,398.55-.48,352,0ZM133.6,336.74l0-.16Zm21.25,23.6-.08-.21Zm-11.52,58,.06,0Zm88,11-.16-.05Z"/></g></g></svg>