<svg xmlns="http://www.w3.org/2000/svg" viewBox="0 0 149.24 117.72"><defs><style>.cls-1{fill:#865f00;}</style></defs><g id="Layer_2" data-name="Layer 2"><g id="Layer_1-2" data-name="Layer 1"><g id="g5718"><path id="path5714" class="cls-1" d="M90.73,97.17,121.3,53.4l-5.37-13.62,8-9.58,16-4.11-6.63,12.32h-2.67l-5.32,12.31,16,0,8-13.65L139.87,16.6,122.51,5.74,106.57,20.8,99.94,34.45l12,15L101.36,60.39,96,46.76,84,48.12l2.66-9.56L88.32,0,79,1.36l-.16,116.36Z"/><path id="path5716" class="cls-1" d="M65.38,97.22,31.17,53.57l5.88-13.65-8.91-9.54L10.36,26.33l7.42,12.29h3L26.69,50.9l-17.78,0L0,37.32,10.34,16.84,29.59,5.91l17.8,15,7.43,13.63L41.48,49.6,53.37,60.48l5.88-13.65,13.37,1.31-3-9.55L65.63,0,76,1.36l2.64,116.36Z"/></g></g></g></svg>