<svg id="svg1449" xmlns="http://www.w3.org/2000/svg" xmlns:xlink="http://www.w3.org/1999/xlink" viewBox="0 0 1735.7 981.4"><defs><style>.cls-1{fill:url(#linear-gradient);}.cls-2{fill:#b26f4b;opacity:0.98;isolation:isolate;}.cls-3{fill:#a56444;}.cls-4{fill:url(#linear-gradient-2);}.cls-5{fill:#6e3c26;}.cls-6{fill:#e9bc7e;}.cls-7{fill:#ffe3bc;}.cls-8{fill:#edc387;}.cls-9{fill:#ebc591;}.cls-10{fill:url(#linear-gradient-3);}.cls-11{fill:url(#linear-gradient-4);}.cls-12{fill:#cfa872;}.cls-13{fill:#c5a36a;}.cls-14{fill:url(#linear-gradient-5);}.cls-15{fill:#4c5c1b;}.cls-16{fill:url(#linear-gradient-6);}.cls-17{fill:url(#radial-gradient);}.cls-18{fill:url(#radial-gradient-2);}.cls-19{fill:#b90069;}.cls-20{fill:url(#linear-gradient-7);}.cls-21{fill:url(#linear-gradient-8);}.cls-22{fill:url(#linear-gradient-9);}.cls-23{fill:url(#linear-gradient-10);}.cls-24{fill:#ccb16b;}.cls-25{fill:url(#linear-gradient-11);}.cls-26{fill:url(#linear-gradient-12);}.cls-27{fill:url(#linear-gradient-13);}.cls-28{fill:url(#linear-gradient-14);}.cls-29{fill:url(#linear-gradient-15);}.cls-30{fill:url(#linear-gradient-16);}.cls-31{fill:url(#linear-gradient-17);}.cls-32{fill:url(#linear-gradient-18);}</style><linearGradient id="linear-gradient" x1="-74.31" y1="990.51" x2="-75.84" y2="1287.69" gradientTransform="translate(868.74 -236.97) scale(0.75)" gradientUnits="userSpaceOnUse"><stop offset="0" stop-color="#f7f7f2"/><stop offset="1" stop-color="#f7f7f2" stop-opacity="0"/></linearGradient><linearGradient id="linear-gradient-2" x1="346.58" y1="-93.23" x2="346.48" y2="-106.76" gradientTransform="translate(-119.23 1032.6) scale(2.83)" gradientUnits="userSpaceOnUse"><stop offset="0" stop-color="#a34619"/><stop offset="1" stop-color="#b2724f"/></linearGradient><linearGradient id="linear-gradient-3" x1="162.72" y1="-93.79" x2="171.92" y2="-107.28" gradientTransform="translate(273.47 1072) scale(2.83)" gradientUnits="userSpaceOnUse"><stop offset="0" stop-color="#354923"/><stop offset="1" stop-color="#979900"/></linearGradient><linearGradient id="linear-gradient-4" x1="183.26" y1="-94.68" x2="189.8" y2="-102.34" xlink:href="#linear-gradient-3"/><linearGradient id="linear-gradient-5" x1="174.1" y1="-89.75" x2="166.79" y2="-97.04" xlink:href="#linear-gradient-3"/><linearGradient id="linear-gradient-6" x1="223.33" y1="-98.16" x2="223.86" y2="-106.91" gradientTransform="translate(71.25 1104.91) scale(3.23 2.99)" xlink:href="#linear-gradient-3"/><radialGradient id="radial-gradient" cx="372.62" cy="-185.81" r="5.38" gradientTransform="matrix(6.43, 0.86, -0.7, 5.24, -1719.37, 1456.77)" gradientUnits="userSpaceOnUse"><stop offset="0" stop-color="#979900"/><stop offset="1" stop-color="#354923"/></radialGradient><radialGradient id="radial-gradient-2" cx="343.09" cy="-284.61" r="6.6" gradientTransform="matrix(7.99, -3.33, 2.38, 5.7, -1280.59, 3562.95)" xlink:href="#radial-gradient"/><linearGradient id="linear-gradient-7" x1="1524.05" y1="676.42" x2="1460.82" y2="1015.76" gradientTransform="matrix(-1, 0, 0, 1, 2987.15, 0)" gradientUnits="userSpaceOnUse"><stop offset="0" stop-color="#979900"/><stop offset="1" stop-color="#4c5c1b"/></linearGradient><linearGradient id="linear-gradient-8" x1="1463.3" y1="846.34" x2="1496.28" y2="846.34" gradientTransform="matrix(-1, 0, 0, 1, 2987.15, 0)" gradientUnits="userSpaceOnUse"><stop offset="0" stop-color="#4c5c1b" stop-opacity="0"/><stop offset="0.53" stop-color="#4c5c1b"/><stop offset="0.95" stop-color="#4c5c1b" stop-opacity="0"/></linearGradient><linearGradient id="linear-gradient-9" x1="1501.65" y1="850.91" x2="1585.8" y2="826.19" gradientTransform="matrix(-1, 0, 0, 1, 2987.15, 0)" gradientUnits="userSpaceOnUse"><stop offset="0" stop-color="#4c5c1b"/><stop offset="0.17" stop-color="#4c5c1b" stop-opacity="0.68"/><stop offset="0.37" stop-color="#4c5c1b" stop-opacity="0.38"/><stop offset="0.58" stop-color="#4c5c1b" stop-opacity="0.17"/><stop offset="0.79" stop-color="#4c5c1b" stop-opacity="0.04"/><stop offset="1" stop-color="#4c5c1b" stop-opacity="0"/></linearGradient><linearGradient id="linear-gradient-10" x1="1332.25" y1="823.74" x2="1413.69" y2="841.34" gradientTransform="matrix(-1, 0, 0, 1, 2987.15, 0)" gradientUnits="userSpaceOnUse"><stop offset="0.06" stop-color="#4c5c1b" stop-opacity="0"/><stop offset="0.3" stop-color="#4c5c1b" stop-opacity="0.03"/><stop offset="0.48" stop-color="#4c5c1b" stop-opacity="0.14"/><stop offset="0.65" stop-color="#4c5c1b" stop-opacity="0.32"/><stop offset="0.81" stop-color="#4c5c1b" stop-opacity="0.58"/><stop offset="0.96" stop-color="#4c5c1b" stop-opacity="0.91"/><stop offset="1" stop-color="#4c5c1b"/></linearGradient><linearGradient id="linear-gradient-11" x1="291.25" y1="853.13" x2="263.79" y2="1000.47" gradientTransform="matrix(1, 0, 0, 1, 0, 0)" xlink:href="#linear-gradient-7"/><linearGradient id="linear-gradient-12" x1="247.72" y1="924.88" x2="274.89" y2="924.88" gradientTransform="matrix(1, 0, 0, 1, 0, 0)" xlink:href="#linear-gradient-8"/><linearGradient id="linear-gradient-13" x1="301.67" y1="923.93" x2="355.9" y2="899.73" gradientUnits="userSpaceOnUse"><stop offset="0" stop-color="#4c5c1b"/><stop offset="0.06" stop-color="#4c5c1b" stop-opacity="0.83"/><stop offset="0.18" stop-color="#4c5c1b" stop-opacity="0.53"/><stop offset="0.31" stop-color="#4c5c1b" stop-opacity="0.29"/><stop offset="0.46" stop-color="#4c5c1b" stop-opacity="0.13"/><stop offset="0.63" stop-color="#4c5c1b" stop-opacity="0.03"/><stop offset="0.87" stop-color="#4c5c1b" stop-opacity="0"/></linearGradient><linearGradient id="linear-gradient-14" x1="141.36" y1="905.72" x2="199.55" y2="918.29" gradientTransform="matrix(1, 0, 0, 1, 0, 0)" xlink:href="#linear-gradient-10"/><linearGradient id="linear-gradient-15" x1="-36.76" y1="626.9" x2="-100.03" y2="966.45" gradientTransform="matrix(0.75, 0.02, -0.03, 1.11, 199.12, -58.56)" xlink:href="#linear-gradient-7"/><linearGradient id="linear-gradient-16" x1="-108.05" y1="795.07" x2="-75.07" y2="795.07" gradientTransform="matrix(0.75, 0.02, -0.03, 1.11, 199.12, -58.56)" xlink:href="#linear-gradient-8"/><linearGradient id="linear-gradient-17" x1="-57.02" y1="796.03" x2="26.52" y2="769.32" gradientTransform="matrix(0.75, 0.02, -0.03, 1.11, 199.12, -58.56)" gradientUnits="userSpaceOnUse"><stop offset="0.12" stop-color="#4c5c1b"/><stop offset="0.23" stop-color="#4c5c1b" stop-opacity="0.84"/><stop offset="0.57" stop-color="#4c5c1b" stop-opacity="0.38"/><stop offset="0.84" stop-color="#4c5c1b" stop-opacity="0.1"/><stop offset="1" stop-color="#4c5c1b" stop-opacity="0"/></linearGradient><linearGradient id="linear-gradient-18" x1="-239.1" y1="772.48" x2="-157.66" y2="790.08" gradientTransform="matrix(0.75, 0.02, -0.03, 1.11, 199.12, -58.56)" xlink:href="#linear-gradient-10"/></defs><g id="layer1"><path id="path20" class="cls-1" d="M850.82,16.11C789.34,15.35,727,41.29,687.71,88.64c-34.55,39.79-52.84,94.82-42.42,147,2.54,15.11,8.63,29.34,12.32,43.94-13.78,12-27.16,23.47-35.12,45.78-10.55,29.54,5.65,70.83,26.35,93.49,9,17.51,13.09,39.29,30.36,51.38,12.71,7.68,27.31,12,42,13.35,3.43,1.38,10.29.12,10.92,4.78-2.28,6.17-10.41,8.44-16.38,8.06-8.64-1.51-15.88-6.93-24.27-9.44-46.87-20.78-106.7-2.27-135.15,39.41-19.56,28.84-18.29,67.12-5,98.22,2.8,7.68,7.75,14.35,10.8,21.78,1.53,10.58-9.53,18-19.05,18.89-20.71,5.16-40.27,14.1-60.72,20.4-6.48,2.9-15,3.78-19.06,10.07-3.55,4.79-2.16,13.35,4.83,14,10.29,2.14,20.83-1,31.25.51,210.23.25,420.71,8,630.69-5.55,15.88.89,29.72-14,28.45-29.46a119.88,119.88,0,0,1,3.56-29.34c2.54-15.87-1.9-34.88-17.27-43.07-15.25-9.19-34.68-7.8-50.69-1.38-27.82.63-48.4-34.76-33-57.92,10.29-20.66,33.92-28.34,50.31-43.07,35.82-33.24,46.74-90.16,24.39-133.6-10.17-22.92-27.95-41.43-43.45-60.95-11.68-25.69-7.49-54.65-2.16-81.34,5.85-68.13-32.52-136.25-91.46-171-43.44-27.57-96.41-37.9-148-37.39ZM609.47,386.32v0ZM633,412.25l-.13-.25ZM620.26,476.1Zm97.31,12.09h0Z"/><g id="layer1-3"><path id="path1413" class="cls-2" d="M-4.82,731.32c698,0,1767.48,1.85,1767.48,1.85l-10-92.84S1141.8,698,1085.8,670.28c-48.06-25.52-48.78-53-48.78-53-58-42.41-181.57-103-197.11-58.57,0,0,34.17,115.69-11.53,120C796.17,682.53,811,630,811,630s-11-10.85-26.64-8.79c-23.77,3.09-57.76,21-57.76,21C708.06,698,478.84,697.66,416.16,696.53c-88.31-1.95-365-20.07-421.39-42.3Z"/><path id="path1417" class="cls-3" d="M1043,636.83s-159.76-78.44-192-24c0,0,4.54,19.46,2,35,.61,4.32,32.12-30.39,213.38,10.37Z"/></g><rect id="rect2041" class="cls-4" x="-8.04" y="730.74" width="1743.8" height="250.7"/></g><g id="layer3"><path id="path1202" class="cls-5" d="M796.46,822c-4.3.7-8.5,1.7-12.8,2.2-9.2,1-5.3-.8-9.5.4a12.66,12.66,0,0,0-2.6.4c-1.8,1.8,2.8,1.9,0,3.3-7,.7-27.7,1.3-32.9-.9-3.1-2.1-6.3-2.7-11.5-3.5-34.3-2.5-53.6-3.8-83-15.4-3.5-1.9-5.8-3.8-6.2-7.6,8.4-4.8,19.3-2.4,40.7-3.1,15-.4,39.8,1.7,60.4,3,24.1,1.9,59.2-5.1,68.5-.8-.7,1.5,3.5,4.1,2.7,5.7"/><path id="path1226" class="cls-6" d="M773.56,714c.1-.5,3.9-6.2,5-6.2,0,0-1.5,2.6-1.7,2.8a15.82,15.82,0,0,0-2.7,3.1c0,.3-.5.1-.6.3-.2.7.2.7.4.9s-.1.6,0,.8.1.7.5.8a49.54,49.54,0,0,0,5.4.1c0-.2-2.3.1-2.6.1a21.21,21.21,0,0,0-4.4.6c-1.8,1.8,5.4,6.9,5.4,7.4,0,.2-.4,0-.6,0-2-.3-2.5-1.6-3.7-2.8-2-2-.6-4,.4-7"/><path id="path1228" class="cls-7" d="M773.36,737.84c.5-1.9,1.5-4.6,3.4-5.6.5-.2,1.4-.4,1.8-.6.2-.1.7,0,.5,0-2.1,0-7,4.1-6.1,5.7a1.76,1.76,0,0,0,.4.5,2.77,2.77,0,0,0,.1.9c.2.3,3,.2,3.5.3s1.4,0,1.7.3c.1.1.3,0,.3,0-2,0-4.8-.6-6.5.3-1.2.6,3.2,4.5,3.9,4.5,1.1,0-2.4-.8-3.1-1.4-1.6-1.6-.2-2.4.5-3.9"/><path id="path1230" class="cls-8" d="M773,755.14a7.91,7.91,0,0,1,3.5-4.7c.7-.4,2-.7,1.9-.8-.7-.7-1.6,1.1-1.9,1.3-1,.5-2.6,1.1-3.1,2.2-.3.5-1.2,4.7-.3,4.7a4.05,4.05,0,0,1,.9.5c.6.6,4.4-.3,4.9-.3.1,0,.5,0,.4-.1-.7-.7-2.3.4-3.1.5-1,.2-4.4-.3-3.9,1.2s6.5,4.7,6.5,3.9c0-.1-2.5.1-2.8,0-1.8-.5-3.3-2.8-3.7-4.3"/><path id="path1240" class="cls-9" d="M759.16,695.84c-.1,2.3-6.6-5.7-5.4-5.2,1.9,1,6.7,7.7,6.7,1.8,0-.6.6-7.6.8-7.5,1.8,1.8.2,13.7,2.8,12.4,1.8-.9,7.3-9,8-9a18.26,18.26,0,0,1-1.6,2.6c-.9,1.6-2,4.6-3.6,5.7-.2.1-2.6.7-2.3,1,1.9,1.9,7.4-.2,9-1,.9-.5,3.9-1.5,2.8-1.3-7.8,2-8.3,6.5-16.8,4.4"/><path id="path1039" class="cls-10" d="M753.46,809.54c-9.5-11.2-10.9-25.3-12.9-39.3-2.4-16.6-6.8-69.2,18.1-75.4,4.8-1.2,8.3.1,11.4,4.1,9.5,12.7,2.9,39.1,4.1,54.3s-.5,17.1,4.7,27.4c2.2,4.4,6.6,17.9,7.8,22.7,3.5,13.8-3.4,16-11.6,16.4-8.4.5-17.8-.8-21.6-10.2Z"/><path id="path1284" class="cls-9" d="M837.36,740.34c-1.3,1.4-3,2.5-3.8,4.2-.4.8,3.1,4.8,4.2,3.7.6-.6-2.3-1.8-2.9-2.4S837.36,741.34,837.36,740.34Z"/><path id="path1286" class="cls-7" d="M835.26,763.14a66.52,66.52,0,0,0,3.3-5.8c.3-.6-.9,1-1.3,1.5s-2.5,2.7-2.4,3.5a5.9,5.9,0,0,0,.4.8,4.05,4.05,0,0,0,0,1.1c.1.7,2,.4,2.4.7s1.3.8,1.3.4c0-.7-1.4-.2-2-.5S835.66,763.54,835.26,763.14Z"/><path id="path1288" class="cls-7" d="M832.66,778.14c1.8-2.3,3.4-4.7,5.3-6.9.5-.6-1,1.1-1.6,1.5-3.1,1.5-2,2.4-3.1,4.6-1.4,2.7,8.5,7.1,2,2.7a9.66,9.66,0,0,1-2.6-1.9Z"/><path id="path1290" class="cls-7" d="M829.16,790.44c1.9-1,3.8-1.9,5.7-2.9.5-.1,2.1-.5,1.6-.2-1.6,1.1-5.1.8-6.2,2.9-.8,1.6-.1,2.9,1.3,3.8.5.3,2.3.9,1.6.9-2.3,0-2.7-2.4-4-4.5Z"/><path id="path1045" class="cls-11" d="M795.86,811.64c4.8-8.8,10.7-17.1,14.5-26.4,5.8-14.6,4.1-30.5,7.8-45,1.9-7.6,10.8-11.2,14.5-2.1,9.9,24.8-.6,82.4-35.1,75.4"/><path id="path1175" class="cls-12" d="M722,813.94c2.8-1.4,5.6-3,8.5-4.1,2.3-.9-1.2,2.2-1.3,2.3-1.1,2.2-3.5,4.1-5.4,5.9-.3.3.8-.6,1-.8a15.85,15.85,0,0,0,2.8-4.7c.7-1.5-4.6,1.6-4.7,1.6-.3,0-.6-.2-.9-.2Z"/><path id="path1173" class="cls-12" d="M714.46,798.14c-.7,1.3,9-1.1,9,.8,0,.1-3.7,1.4-4.1,1.6-.2.1-2.4.1-1.8-.5.2-.2,1.8,0,1.6.3a4.28,4.28,0,0,1-1.8.5,35.77,35.77,0,0,0-3.6,1.3c0,.5,1-.1,1.6-.3.8-.2,8.4-2.2,8.5-2.1.5.5-1.6,1.3-1.8,1.6-1.1,1.1-2,2.5-3.1,3.6-.4.4-1.3.5-1.3,1s1.2-.9,1.8-1.6,4.6-3.9,3.6-4.9c-1.7-1.6-6.4-.8-8.6-1.3Z"/><path id="path1169" class="cls-12" d="M715,785.24c-2.4-.8-4.9-1.4-7.2-2.3-1.1-.4,2.3.5,3.4.8,2.5.7,5.7,1.6,5.2,2.6s-3.8,1-4.9,1c-.4,0-1.7.3-1.3.3h2.6c.5,0,.8-.3,1.3-.3.2,0,2.3,0,2.1.3a13.89,13.89,0,0,1-2.1,2.1c-.7.4-1.4.3-2.1.8a4.67,4.67,0,0,1-1,.5c-.2.1-.8-.3-.8,0,0,0,3-1.5,3.1-1.6,3-1.6,1.7-1.2,1.7-4.2Z"/><path id="path1167" class="cls-12" d="M711.36,769.24c-1.7-1.1-4.2-1.5-5.2-3.4-.8-1.6,8.2,4,6.5,5.7-.5.5-4.3,0-4.9,0s-1-.3-1.6-.3h-.3a26.62,26.62,0,0,1,3.9.3c.5.1,3.3-.6,3.4-.5s-4.1,3.4-4.7,3.6c-.4.2-2.8.9-2.8,1.6,0,1,4.6-1.8,4.7-1.8.9-.6,1.4-2.5,1.8-2.1"/><path id="path1165" class="cls-13" d="M706.46,745.44a14.58,14.58,0,0,1,6.5,6.5c.9,1.8-6.5,3.1-7.2,3.9a4.94,4.94,0,0,1-1.8.8h-.3a9.35,9.35,0,0,0,3.1-1c.7-.3,5-1.1,4.4-2.3-.4-.9-3.6-.2-4.4-.5-.1,0-2.3-.5-2.3-.3s.5-.2.8-.3a11.27,11.27,0,0,0,1.8-.3c1.2-.3,3.5,1.2,4.1,0,.1-.4-4.2-5.4-4.7-6.5Z"/><path id="path1181" class="cls-9" d="M717,734c1.3,5.6-.3,6.4,4.1,7.5,1.2.3,7.2-1.4,7.8-2.6a5.26,5.26,0,0,1,2.1-1.8c0,.7-.6.1-.8.3-1.5,1.5-2.7,2.6-5.2,2.6-.2,0-.9.1-1,0-.4-.4,4.2-7.5,3.6-7.5-.2,0,.1.4,0,.5-.3.6-.7,1.2-1,1.8-.6,1-4.4,6.2-5.4,5.2-.7-.7.5-9.8.3-9.8v2.1c-.3,1.7-.6,3.3-1,4.9-.1.6.3,1.5,0,2.1-.5,1.1-1.9-1.1-2.1-1.6s-.3-1-.5-1.6c-.6-1.5.6.4-.9-2.1Z"/><path id="path1047" class="cls-14" d="M711.06,745.44c6.3-10.8,13.4-6.2,19.1-.5,10.8,10.8,3.8,29.6,15,40.8,4.6,4.6,22.6,33.2,20.2,35.7-2,2-14.7,2.1-17.6,2.1-30.8-.1-41.9-51.8-36.7-78.1Z"/><path id="path1157" class="cls-7" d="M781.16,765.74c7.1,1.8,5.9.5,7.1-5.5,0-.1.4-2.4.2-2.4s.1,2.3,0,2.6c-.3.8-1.7,6.1-2.4,4.8a22.14,22.14,0,0,1-1.8-4.2c0-.2.2-1.5-.2-1.5a14.91,14.91,0,0,0,.4,1.8,8.75,8.75,0,0,0,.2,1.6c.1.4,1.5,2.9,1.3,3.1s-.7.2-1.1.4c-.7.3-1.1.6-2,0-.6-.3-1.2-.5-1.7-.7Z"/><path id="path1212" class="cls-15" d="M760.66,808.24c-3.2-4.8-.5-3.1-3.7-6.3-.3-.3-5.5-7.4-5-7.9,3.9-2.1,5.1-2.9,11.4-7.5a53.87,53.87,0,0,0,7-13.7c1.3-2,2.9-7.5,4.4-7.9.4,2.3.5,3.5,1,5.8,1.4,6.4.7,4.2.6,4-.2-2.9.8.9,1.7,3.5a7.9,7.9,0,0,0,1.3,2.6s2.9,9.6,3.1,10.1a10.82,10.82,0,0,1,.3,4.4c-1.9,5.7-8.9,8.2-13.7,10.6-2.2,1.1-4.7,3.1-7.2,3.1"/><path id="path1097" class="cls-16" d="M779.86,805.14c-2.4-7.2-7-16-4.1-24a40.45,40.45,0,0,1,7.1-12.6c4.8-5.5,8.6-8.9,16.5-7.1,33.5,7.8-2.8,64.3-19.5,43.7Z"/><path id="path1105" class="cls-17" d="M796.66,798.44a11.08,11.08,0,0,0-10.6,7.7,14,14,0,0,0,1.1,11.8c1.7,2.7,4.1,5.4,7.3,6.3a30.85,30.85,0,0,0,10.5.6c2.8-.3,5.7-1.1,7.5-3.4,2.1-2.7,2.5-6.3,2-9.6-.6-4.2-2.6-8.3-6.2-10.6s-7.7-2.9-11.6-2.8Z"/><path id="path1204" class="cls-15" d="M733.76,819.64c2.2-.8,4.6-1.3,6.7-2.3s3.8-2.6,5.7-3.9a17.8,17.8,0,0,0,3.1-2.3c1.2-1.2,4.3-8.1,5.9-8.7.8-.3,4.6-.7,4.9-.4a21.64,21.64,0,0,0,.8,2.3c1.9,3.8,4.7,10.8,1.3,14.2-.2.2.1,1.3,0,1.6s-.4.6-.5.8c-1,2.1-3.7.5-5.2,1.3-2,1-3,1.7-9.6,1.6a28.17,28.17,0,0,1-13.1-4.2Z"/><path id="path1101" class="cls-18" d="M776.56,794.64c-5.2.3-10,2.6-14.6,4.8a10.73,10.73,0,0,0-5.7,7.1,18.73,18.73,0,0,0,5.1,18.6c2.5,2.3,6,3.2,9.3,3.6a22,22,0,0,0,10.2-1.4,8.34,8.34,0,0,0,1.2-.4c-.7.6-1.5,1.1-2.2,1.7,2.7-1.6,5.8-3.2,7.4-6a25.39,25.39,0,0,0,2.3-16.5c-1-4.2-3.6-8.2-7.5-10.1A9.83,9.83,0,0,0,776.56,794.64Zm2.9,34.1"/><path id="path1211" class="cls-7" d="M766.06,714.54c-1.3-2.5-.3-6.1-.3-8.8,0-1,.1-2.2.1-2.2-.9,1.8.6,7,.6,8.9v2.1c.4.4,6.3-3.9,6.3-4.3,0-.8-2.6,2.1-2.7,2.2a11.4,11.4,0,0,1-3,1.8c-.1.3-1.2,0-1,.3.9,1.3,8.8,1.2,8.8,1.2,0-.3-1.7,1-3.5,1a8.56,8.56,0,0,1-2.8-.1,10.21,10.21,0,0,0-2.3-1.2c-1.1,0,2,5.6,2.2,5.9,0,.1.4.1.3.3-.8.8-3-3.5-3.2-4a11.3,11.3,0,0,1,0-2.6c-.1-.2.7-.3.5-.5s-2.1-.3-3-1.2c-.1-.1-.7-.4-.4-.6C762.86,712.74,764.66,714.24,766.06,714.54Z"/><path id="path1213" class="cls-7" d="M765.36,735.84c.8-1.7-1-4.9-.1-6.7.1-.2.9-.7.6-.6-.8.4-.4,4.2-.4,5.3a9.74,9.74,0,0,1,.1,1.6c0,.1-.4.5-.2.4.4-.1.6-.4.9-.6.8-.6,2.2-3.6,3-4,.6-.3,1.1-.6,1.7-.9a2.81,2.81,0,0,1,.5-.1c-1,0-3.4,3.3-3.7,4-.2.4-1.6,1.4-1.6,1.6.2.3,1.5.3,1.9.3a6.5,6.5,0,0,0,3.1-.4,4.8,4.8,0,0,1,1.2,0c0-.1-.8.5-.9.5-.4.2-1,.1-1.4.3-.9.4-3.9-.4-4.5.3s.8,3.5,1,4.1a12.93,12.93,0,0,1,.4,1.7c-.5-1.9-1.8-2.7-2.6-4.1-.6-1.1.6-2.7.3-2.7-.9,0-3-.2-3-1.4,0-.1-.2-.4-.1-.4.4,0,.8.9,1.2,1.2a14.34,14.34,0,0,0,2.6.6Z"/><path id="path1215" class="cls-7" d="M766.36,756c1.2-.5,4.5-7.5,5.2-7.5.1,0-.6,1-1,1.9-.9,1.9-2.6,2.9-3.5,4.8-.2.3-.8.5-.7.8.3,1.3,3.4.6,4.3.6.7,0,2.1.7,2.1,0a2.27,2.27,0,0,1-.4.1h-2.1c-1.1,0-3.4-.5-4.4,0-.6.3.4,4,.5,4.5.1.3-.1,3.9,0,3.9s-.1-.4-.1-.6a8.33,8.33,0,0,1-.3-2.2c0-1.7.3-4-.8-5s-2.9-1.3-4.4-1.6a13.78,13.78,0,0,1-1.6-.6c.2-.2,2.2.8,2.6.9.2,0,4.4.8,4.6,0,.3-1.2-1.3-2.1-1.6-3.1-.2-1.2-.2-2.8-.3-2.8-.3,0,0,.6,0,.9.1,2.2.1,3.7,1.9,5Z"/><path id="path1219" class="cls-7" d="M768,779c-1.2-1.8,3.1-4.6,3.1-5.2s-.7,1-1,1.4A25.51,25.51,0,0,0,768,779c.4.6,3.7-.3,4.1-.4.1,0,2.1-.4,2.1-.4-.3-.3-2,.9-2.5,1a26.07,26.07,0,0,0-3.1.4c-.2.2,2.1,4.8,1.6,4.1-1-1.4-1.7-3.7-2.8-4.3-.7-.3-1.6-.2-2.3-.5a2.35,2.35,0,0,1-1-.5c0-.1-.2-.8-.3-.8s2.5,2.6,4.2,1.4Z"/><path id="path1223" class="cls-7" d="M799.16,766.64c-1.9-.8-2.1-4.1-2.1-6.1,0-.1.6-2.3.4-2.3-.5,0,0,.9,0,1.4,0,1.1-.3,2.8,0,3.7a5.24,5.24,0,0,0,1.6,2.2c2,2,1.8-6.3,3.2-6.3.7,0-.2,1.3-.5,1.9s-1,3.8.1,4.1c2,.7,3.1-.8,4.3-1.9.2-.2,2.5-1.5,2.5-1.6-.3-.3-3.7,3.6-3.9,3.7-.4.4.1,1.4.1,1.8,0,1.1,5.9-.2,6.6-.9,0,0-1,.5-2.1,1a9.09,9.09,0,0,1-3.6.6c-.1,0-.4-.1-.4,0,0,.8,2.6,1.6,3.6,1.6a11.48,11.48,0,0,0,1.8.1c0-.2-.4,0-.6,0h-3.1c-1.2.2-7.7-2.1-7.9-3Z"/><path id="path1232" class="cls-7" d="M749,713.24c2.5-2.9-4.5-9.5-4.5-9.7,0-.6,1.7,1.7,1.8,2.1.3.9,2.8,5.6,2.2,6.2-.8.8-5.8-1.2-6.5-1.2s-1.7-.6-1.7-.4c0,.7,6.8,2.2,7.6,3,1,1-3.7,3.8-4.1,4.3-.1.1-1.6.7-1.4.9s1.2-.2,1.6-.3c1.8-.5,3.5-1.1,4.4-2.8.2-.3.1-1.1.4-1.3,0,0,1.8-.4,1.6-.5A12.08,12.08,0,0,0,749,713.24Z"/><path id="path1234" class="cls-7" d="M746.36,736c.1-.3.2-.5.3-.8.3-1.5-1.9-3.8-2.8-4.8-.5-.5-1.4-1.2-1.4-1.2,0,.3.8,0,.9.3.9,1.8,2.5,3.1,3.7,4.4.6.6-.1,2.3.5,2.8s1.3.7,1.7,1.3c.1.2-.1.8.1.8.4,0-2.6-2.6-2.8-2.3-.1.1.3,5.1-3.2,6.8-1.1.6-3-.3-3,.1,0,.2.4-.1.6-.1a11.27,11.27,0,0,0,1.8-.3c2.7-.7,4.7-5.2,1.4-6.3-1.7-.6-3.8-.2-5.4-1a10.67,10.67,0,0,0-1.9-.9c-.2,0-.7-.2-.5-.1C739.06,736.64,743.16,735.24,746.36,736Z"/><path id="path1236" class="cls-7" d="M745.86,758.14a3.46,3.46,0,0,0-.9-2.6c-.2-.3-1.9-3-1.9-3,.6-.6,3.3,5,3.6,4.9a4.33,4.33,0,0,0,2.8-3.2,5.73,5.73,0,0,1,.4-1.4v-.3c0,1.2.2,2.2-.3,3.1-1.2,2.4-4.2,1.1-1.7,5.3a12.46,12.46,0,0,1,1.2,3.4,4.57,4.57,0,0,1-.1,2.2c0-1.6-.8-2.5-1-4-.6-3.5-1.9-1.8-4.4-1.2-1,.3-2.4-.1-3.2-.1h3.4c2.1,0,2.7-1,2.7-3"/><path id="path1238" class="cls-7" d="M749.66,780.34c.8-.2-2.4-3.9-2.3-3.9,3,0,1.5,3.7,3.5,4.7.7.3,1.8-2.5,2.3-2.7s1.4-.6,1-.6c-.8,0-1.9,2.4-2.3,2.8-.2.2-2.1.8-1.6,1.4s1.7.9,1.7,1.9c0,1.5-.7,3.6-.5,3.6.4,0-.7-4.9-1-5.3-.7-.7-3-.1-3.7-.1-.5,0-1.9-.3-1.4-.3,1.2,0,4.8.3,4.3-1.5Z"/><path id="path1242" class="cls-7" d="M802,784c-.5-2.9-1.2-5.7-1.6-8.6-.1-.9.5,1.8.7,2.7.3,1.3.5,4.2,2,4.2,2.1,0,3.7-8.2,4.6-7.3.4.4-3.3,8.8-2.7,9.3,1.3,1.3,7.3-.5,7.5-.4s-1.9.9-2.2.9c-4.1,0-5.6-.4-6.9,2.4a15.43,15.43,0,0,0,.2,4.9c.2,0-.1-.4-.2-.5a20,20,0,0,1-.9-3.5c-.3-1.5-.2-2.6-1.8-2.6a11,11,0,0,1-2.4-.2c1.5,0,3.7-.5,4.8-.5"/><path id="path1244" class="cls-7" d="M787.86,775.64c2.9-2-1.2-5.8,0-8.2.1-.2.1,2.1.2,2.2.9,1.8-.7,4.9,1.3,5.8s6.2-13.8,3.7-3.7c-.2.9-3.3,6.2-3.1,6.4.4.4,1.6.2,1.6-.4s-1,.4-1.5.4c-1.9,0-2.4,1.7-4,2.6-.7.4-2.6,1.8-2,1.3,3.2-3.2,5.2-4.4-.2-6.6-.3-.1-2.2-.7-2.2-1.1,0,0,2,.7,2.2.7a11.12,11.12,0,0,0,4,.6Z"/><path id="path1248" class="cls-7" d="M813.06,777.44c-2.7-1.6,3.9-7.3,3.7-7.5s-2.8,6.2-3.1,6.8c-.2.4-1.2,2-.4,2.4.2.1,5.5-2,4.6-2l-.9.9c-.4.4-4.4,1.2-3.5,2.2.7.7.8,2.6,1.6,3.5.2.2,2,1.7,1.8,1.8-1.3,1.3-4.3-5.2-3.7-7.3"/><path id="path1252" class="cls-7" d="M810.36,809c-3.6.5-7.2.8-9-2.7-1.2-2.4,1.4-8.5,2.2-7.7,0,0-3,7.4-1.1,5.5.4-.4,3.9-6.9,4.8-6,.4.4-3.2,2.2-2,4.6,1,2.1,6.2-3.7,6.2-3.1,0,1.2-3.8,2.8-2.9,4.6,1,2.1,4.8.4,4.6.4-.9,0-4.4,2.4-3.7,3.1,1.2,1.2,3.4.3,4,.5"/><path id="path1262" class="cls-7" d="M780.06,782.74c-.8-1.9,4.1,3.2,2.9,4.4a5,5,0,0,1-3.3,1.1c-.2,0-.7.2-.5.2.9,0,3.4-.7,4,0,1.1,1.1,0,3.7.2,3.7,1.6,0-.1-3.4.5-4s.9-2.3,1.5-2.9c.2-.2.6-.5.4-.5-1.7-.2-.3,3.4-5.7-2Z"/><path id="path1264" class="cls-7" d="M799.26,793.34c1.3-.4,2.7-.9,4-1.3"/><path id="path1268" class="cls-7" d="M799.26,790.44c-2.9,2.7,6,4,6,2.4,0-.1-.8.9-.9.9a15.78,15.78,0,0,0-2.6.9c-.3.3.5,1.3.5,1.6a6.37,6.37,0,0,1-.2.7c1.2,0-2.7-5.4-2.7-5.5"/><path id="path1270" class="cls-7" d="M824.76,738.34c1,2.1.8,5,3.5,4.2.5-.1.7-1.7,1.1-2s1.5-1.5.9-1.5c-.1,0-.7,2.3-.9,2.6s-1.5,3.1-.9,3.7c.1.1,3.1,2.7,3.1,2.9,0,.6-4.1-3.6-4.4-3.3a37.23,37.23,0,0,0-2.7,3.5c0-.1,1.8-4,2-4.4C827.06,742.84,824.76,739.64,824.76,738.34Z"/><path id="path1272" class="cls-7" d="M826.46,753.14c.7,1.6.9,3.6,2.2,4.8.6.5.8-1.3,1.1-2,0,0,2-3.1,2-3.3,0-.6-.9,1-.9,1.6,0,1-1.8,4.2-1.1,4.9.1.1,3.5,1.1,3.5.5,0-.2-2.9.4-3.1.4-1.8,0-1.5,3.8-1.5,5.1,0,.4-.4,1.3,0,1.3a20.69,20.69,0,0,0-.4-2.2c0-1.2,0-4.1-1.3-4.8a11.81,11.81,0,0,0-4.2-1.1c6,3.1,4.6-1.4,3.7-5.2Z"/><path id="path1274" class="cls-7" d="M826.46,773.94c2.5-2.1,3.9-2.8,5.5-4.9.4-.6-.9,1.2-1.3,1.8-.8,1.2-3.5,2.2-3.5,3.8,0,1.9,2.9,3.7,2.9,3.7,0-.7-1.4-.5-1.8-1.1-.2-.3-1.3-2-1.6-1.6-.7.7-.5,2.7-.7,3.7,0,0-.7,2.4-.4,2.4,0,0,.5-6.1-.2-6.8a12.45,12.45,0,0,0-2.2-1.6c-.5-.3-2.4-1.8-.9-1.1,1.3.6,4,3.7,3.3.4a16.37,16.37,0,0,1-.4-3.8c0-.4.4-1.1,0-1.1-.4-.2.9,5.4,1.3,6.2Z"/><path id="path1276" class="cls-7" d="M822.76,790.74c2.1-.9-.8-4.8.5-6.6.5-.6.2,1.6.2,2.4s.1,3.9.7,4.2c.4.2,1.9-2,2.7-2a35.2,35.2,0,0,1-2.9,2.9c-.4.4.4,1.7.5,1.8.3.3.1,1.3.5,1.3,0,0-1-2.6-1.8-2.6-.6,0-2.6,2.5-2.7,2.4-.2-.3,2.1-3.2,2.3-3.8Z"/><path id="path1278" class="cls-7" d="M816.56,797.54c1,1,1.7,2.4,2.9,3.1.6.3,2.4-2.2.5-.4-.1.1-.5.5-.5.7,0,1.4,1.8,2.6,1.5,2.6-.8,0-1-2.6-1.6-2.6a3.59,3.59,0,0,0-1.8.2c-.2.1-1.3,1.1-1.5.9-.5-.5,2.6-.9,2.7-1.1.3-.3-1.2-2.5-1.5-2.7"/><path id="path1280" class="cls-7" d="M815.66,740.34c.6.3,5.4,3.5,4.2,5.8a9.18,9.18,0,0,1-2.7,2.9,9.63,9.63,0,0,0-2.6,1.6c.4,0,4.3-3.9,3.8-4.4-.7-.7-4.7-.2-5.5-.2-.6,0,1.2-.2,1.8-.2,1.4,0,2.7.5,4-.2,1.7-.6-2.4-4.3-3-5.3Z"/><path id="path1282" class="cls-7" d="M814.16,754c-1.5,2.1,3.7,3.4,3.7,5.7,0,1.2-4.6,5.4-4.9,5.1s2.2-3,2.7-3.3c1.7-.8-2.8-1.7-2.7-1.8.8-.8,3.4.7,4,0C817.06,759.54,814,755.34,814.16,754Z"/><path id="path1077" class="cls-7" d="M772,797.74c.5.3,1.5,4.3,2.7,5.5h.2v.2l.2.2c.2.1.4,0,.5.2v.2c.2.2.8.2,1.1.4.9.4,1.2,1,2,1.5a36.18,36.18,0,0,0,4.6.2c.3-.3-.7-.2.4-.2.4,0-.1,0,.4.2.2.1.4-.2.4-.2s.2.3.4.2v-.2c.1-.1.6.1.7,0s.4-.6.5-.7a5.73,5.73,0,0,1,1.3-.7c0-.1-.2.1-.4.2s-.6,0-.9.2a2.76,2.76,0,0,0-.7.9c-.1.1-.6-.1-.7,0a1.51,1.51,0,0,1-1.6-.2c-.3-.3,1.4-1.1,1.6-1.5s.6-1.2.9-1.5h.2c.2-.2.1-.9.4-1.1h.2c.1-.1-.1-.5,0-.5h.2s.3-.9.2-.9-.9,1.6-1.1,1.8h-.2c-.4.2-.5.7-.7.9s-.3-.1-.4,0v.2c-.1.1-.3-.1-.4,0-.4.2-.7.3-.9,0-.1-.1.3-.8.4-.9a6.89,6.89,0,0,0,.7-1.5,14.19,14.19,0,0,1,.5-2.2,11.22,11.22,0,0,1,.5-1.3c.1-.1.3-.5.2-.4a4.23,4.23,0,0,0-.5.7c-.1.1.1.3,0,.4h-.2c-.5.5-.5,1.6-.7,2.2-.1.2-.3.2-.4.4s-.1.6-.4.7.2-.5-.5.2v.2c-.1.1-.2,0-.4,0a5.44,5.44,0,0,1-1.8,0,2.67,2.67,0,0,1-1.5-2.4,13.43,13.43,0,0,1,1.3-2.7,17.38,17.38,0,0,1,1.3-1.5c.1-.1.4.2.4-.2,0-.1-.2.1-.4.2a5.62,5.62,0,0,0-1.3.7,6.08,6.08,0,0,0-.9,1.6c-.1.1.1.3,0,.4s-.3.1-.4.2.1.3,0,.4-.3-.1-.4,0-.1.4-.2.5-.4.2-.5.4-.4.7-.7.5c-1.3-.6-1.4-2.3-1.1-3.7,0-.1.6-2.1.9-1.8.1.1-.3.7-.4.7s-.3-.1-.4,0a1.8,1.8,0,0,0-.4.9,43.66,43.66,0,0,1-.9,4.9c-.4.4-1.3-.9-1.5-1.1h-.2c-.3-.3-.3-1-.5-1.3s-.4-.3-.7-.5Z"/><path id="path1081" class="cls-7" d="M769.46,808.14c.5,1.5,1,2.9,1.5,4.4v.2h.2c.1.1.1.4.2.5s.2,0,.4,0c2,0,2.5-1.5,4.2-2.4.2-.1,2-.7,2-.9s-1.3.4-1.5.5c-.3.3-.3,0-.5.2a3.74,3.74,0,0,0-1.3,1.5c-.4.8,0-.2-.4.2-.1.1.1.3,0,.4-.3.3-.7.5-.9.7-.4.4.6,0-.2.4-.3.1-.6.2-.7.4v.5c.1.1.3.1.4.2a6.47,6.47,0,0,1,.9,1.6c.2.4.7.6.9.9a12.9,12.9,0,0,1,.9,1.6c.1.2.5.2.5.5s-1.4-1.4-1.5-1.5c-.5-.2.1.5-.2-.4-.1-.3-.6-.4-.7-.5s.1-.3,0-.4h-.2c-.2-.2-.3-.9-.5-1.1h-.2c-.1-.1-.1-.3-.2-.4s-.3.1-.4,0V815c-.5-.5-3.3,1.2-3.8,1.6s-1.3.5-1.6,1.1c0,.1-.1.2,0,.2s0-.5.2-.5a6.34,6.34,0,0,0,1.3-1.1,15,15,0,0,1,1.3-1.1c.2-.1.6-.2.7-.4v-.2c.4-.4,0,.6.4-.2.1-.1-.1-.3,0-.4h.2c.2-.2.1-.5,0-.7s-.2.1-.2,0,.1-.4,0-.5c-.2-.4-.3-.9-.5-1.3s.1-.8,0-1.1a4.18,4.18,0,0,1-.7-2.3Z"/><path id="path1083" class="cls-7" d="M786.26,813.24c1.2-4.1,1.4-4.2,3.8-6.6l-1.3,1.3c-.8.8-2.3,3.9-1.3,4.9.3.3.8-1.4.9-1.5.5-.5,3.5-2.1,3.5-2.6l-1.6,1.6c-.7.4-2.7,2.4-2.2,3.5.3.6,2.9,1.4,2.9,1.8,0,1.8-3.6-1.6-3.7-1.5-1,1,.8,5.1.4,5.5-.2.2-1.1-3-1.1-3.3,0-2-.6-1.5-1.6-2.6-.3-.1,1.1-.9,1.3-.5.4.7-1.1.7,0,.7"/><path id="path1100" class="cls-7" d="M769.26,795.74c-.5,1.5-1.1,2.9-1.6,4.4-1.3,3.5,3.3-1.8,3.3-1.8-.6,0-.5,1.2-.9,1.6-1.4,1.4-2.7,2.5-3.8,3.7s-4.2-.2-4.2.4c0,.4.7-.2,1.1-.4.7-.2,2.2-.4,2.7-.9,1.1-1.1-1.6-3.9-1.6-5.7,0-.3.1-.9-.2-.9s1.1,2,1.1,2.2c.1.4.9,3.3,1.5,2.7,1.2-1.4.3-5.3,2.6-5.3Z"/><path id="path1102" class="cls-7" d="M758.86,808.34c-1.4-1.3-2.7-2.8-4.2-4-.1-.1,4.1,3.8,3.3,4.6-.3.3-3.1,2-3.1,2.6,0,0,4.6-2.7,4.2-2-.4.9-3.1,5.1-3.1,5.5,0,.6,1.1-.5,1.5-.9a6.51,6.51,0,0,0,1.6-3.7c0-2.5.8,3.5,1.1,2.9.6-1.3.1-5-1.3-5Z"/><path id="path1104" class="cls-12" d="M765.06,821.14c.9-3.3,2,5.7,3.8,4.8,1.1-.5,2.5-2.1,3.8-2.6.3-.1,2.4-.9,2.4-.9,0-.2-.4.3-.5.4a5.94,5.94,0,0,0-1.8,1.3c-1.9,2.9-4.4.8-2.2,5.1.2.3.4,2.4.5,2.4s-.5-1.2-.5-1.3c-.9-.9-1-2.7-1.8-3.5s-3.7,1.6-4.4,1.8-2.3.9-1.6.9c.3,0,1.5-1.4,1.8-1.6,3.8-2.8,3.1-.6,1.3-4.2a15.25,15.25,0,0,1-.8-2.6Z"/><path id="path1107" class="cls-7" d="M783.66,825.84c1.8-1.1,3.5-2.2,5.3-3.3.2,0,1-.1.7,0a35,35,0,0,0-5.5,2.4c-.1,0-.1.1-.2.2s0,.6-.3.7-.7-.1-1.1,0c-.9.1-1.8,2-1.8,2.6"/><path id="path1109" class="cls-7" d="M810,814.84c1-1.3,1.9-2.6,2.9-3.8.6-.7-2,4-1.8,4.2s5.2-2.1,3.8-1.5-4.4,1.3-4.4,3.1a10.07,10.07,0,0,1-.4,2.9c0-1.1.3-3.2-.4-3.8-.5-.5-3.1-.2-2.2-1.1A6.85,6.85,0,0,0,810,814.84Z"/><path id="path1111" class="cls-7" d="M798.26,807.94c-1.6,9.4,2.7,3.8,5.5,3.8a14.83,14.83,0,0,1-4,2.9c-.5.3-.7,4-.5,4s0-2-1.5-3.5c-.5-.5-4.7.9-3.8.9.2,0,1.2-.8,1.6-.9,2.3-.6,1.8-.8,2.2-2.9A19.5,19.5,0,0,0,798.26,807.94Z"/><path id="path1113" class="cls-12" d="M754.06,819a40.48,40.48,0,0,1,4.8.9c.5.2,1.1,3.8.7,4.6,0,.1-.7,1.6-.5,1.6s.8-4.2.4-4.6c-.7-.7-4.8,1.8-4.9,1.6-.4-.4,4.2-2.4,4-2.6-.4-.4-1.3.1-1.8-.2a7.49,7.49,0,0,1-2.7-1.3Z"/><path id="path1115" class="cls-7" d="M808,823.14c-.4,1.4-.7,2.8-1.1,4.2-.1.5.2-1,.4-1.5.4-1.5.1-2.6,1.8-3.1.8-.2,1.4,4.5,1.8,4,.6-.6-1.3-3.6-.7-4.2.1-.1,3.6-.4,3.5-.5s-6.8-1.2-5.7,1.1Z"/><path id="path1119" class="cls-12" d="M792.26,823.14c1.3-.7,2.5-1.4,3.8-2,1.5-.7,2.2,2.1,2.6,2.7.4.8,0,2.2.2,2.2s0-.4,0-.5a6.14,6.14,0,0,0-1.3-3.5c-.7-.7-1.8,3.1-2,3.5s-1.3,1.5-.7,1.5c.3,0,.2-.6.4-.9.3-.5,2.3-3.3,1.6-4-1-1-4.7.2-5.3.5"/><path id="path1123" class="cls-7" d="M711.86,750c-.7-2.7,3,3.5,4.6,2.7.7-.3,3.1-5.8,2.4-5.8-.4,0-.2.7-.4,1.1s-2.3,6.2-1.5,6.2.8,3.2,1.5,3.8c.5.5.1.8-.2.2s-1.4-3.5-2.2-3.5c-.2,0-3.5,4.2-4.8,4.2-.7,0,1.1-.7,1.6-1.1a9.58,9.58,0,0,0,2.6-3.1c.3-.5-2.8-4.5-3.6-4.7Z"/><path id="path1125" class="cls-7" d="M712.26,765.94c1.4,1,2.8,1.9,4.2,2.9.2.2.4.7.5.5,1.1-1.1-.7-5.3,0-6,.3-.3.8,3.4.9,3.7.5,1.4-.4,1.8-.4,2.7,0,.5.9.5,1.3.9.8.8.8,2.7,1.3,3.7.7,1.3-1.3-3.8-2.7-3.8a17.55,17.55,0,0,0-2.6,3.1,3.22,3.22,0,0,1-1.8,1.3c.8,0,1.4-.9,1.8-1.6,3.4-5.1.2-2.9-2.5-7.4Z"/><path id="path1129" class="cls-7" d="M727.26,750.44c.8,5.8-.9-7.7.2-6.6a2.39,2.39,0,0,1,.2.9c0,1,.7,3.8.2,4.8-.2.2-1,.4-.6.9,1.5,1.9,5.1-3.3,5.7-3.8,1-1-1.8,2.5-2.4,3.1s-1.3,1.1-1.8,1.6c-1.1,1.1,3.4,3.8,4,4,.2.1,1.6.6,1.5.7-1.2,1.2-4.8-1.5-5.3-2.4-1.8-3.7.4,3.1.2,3.3-.6.6-2-4.1-2.2-4.4s-2.4-2-2-2.4.9,2,2.3.3Z"/><path id="path1137" class="cls-7" d="M791.76,800.24c3.2.8,4.8,1.6,6.6-.2.4-.4.5-1.5.7-2a3.64,3.64,0,0,0,.2-1.5,1.47,1.47,0,0,1,.2-.4c-.1,0,.1.3,0,.4a25.67,25.67,0,0,1-1.8,3.7c-.7.7-.6-2.7-.4-3.3,0,0,.7-1.6.4-1.6s-.3,4.5-.7,4.9-2.3-2.9-2.4-2.9c-.9,0,2,3.6,2,3.1,0-.3-3.7-.2-3.8-.4s.1-.1.2-.2"/><path id="path1141" class="cls-7" d="M715.16,782.14l4.6.9c.8.2,0,.1.5.4.9.4.9-2,.9-2.4s-.2-1.2,0-1.5c.1-.1.3-.4.2-.4a6.54,6.54,0,0,0,.4,1.8c.4.7-.5,3.3-.4,3.5s.6-.1.7,0c.4.4,1.1.7,1.5,1.3a12.81,12.81,0,0,0,1.1,2c.1.1.5.2.4.4-.4.4-3-3.5-3.7-2.9-.2.2-.1,2-.4,2.6a9.48,9.48,0,0,1-2,2c-.2.1-1.1.2-1.1.4s.1-.1.2-.2c.2-.4.9-.7,1.3-.9.9-.6,3.1-3.1,1.8-4.4a4.58,4.58,0,0,0-1.8-1.1c-1.3-.4-3.7.3-4.2-1.5Z"/><path id="path1143" class="cls-7" d="M722.46,798.64a48.06,48.06,0,0,1,4.6,2.2c.2.1.1.8.4.7,1.4-.4-1.1-4.4-.4-5.1s.8,2.4.9,2.6c.1.4-.1,2.3.2,2.6.1.1.3-.1.4,0a4.57,4.57,0,0,1,1.1,1.6,17,17,0,0,0,.4,2.2c.1.2.2,1,.2.7,0-.8-1.6-4.8-2.2-4.2s-1,2.1-1.8,2.9c-.6.6-1.5.8-2,1.3,0,0-.2.5-.4.4s.9-.8,1.1-1.1c.7-1,1.6-1.5,2.2-2.6.7-1.4-1.9-1.9-3.1-2.7-.6-.4-1.1-1.1-1.6-1.5Z"/><path id="path1147" class="cls-7" d="M730.66,767.34c-.3-2.1-.5-4.3-.9-6.4a8.73,8.73,0,0,0,.2,2.4,9.06,9.06,0,0,0,1.1,2.2c.1.3.3.8.5.9.6.3,3.8-5.8,4-5.8a6.9,6.9,0,0,0-.7,1.5c-.5,1.2-1.1,3.5-1.6,4.6-.1.2-.4.3-.5.5-1.2,2.5,7.4.7,6.2,1.8-.1.1-.6,0-.7,0a15.27,15.27,0,0,1-3.7,0c-.3-.1-1.5-1.1-1.8-.7-.5.5,3.7,6.8,4,6.8a17.72,17.72,0,0,1-1.3-1.5c-.8-1.2-3.3-2.8-3.7-4a5.44,5.44,0,0,0-1.1-2.3Z"/><path id="path1149" class="cls-7" d="M736.16,781c-1.4-1.6-2.8-3.3-4.2-4.9,0-.4-.3-1.2,0-1.1.6.2,2.6,4.4,4,5.1.3.2-.1,1.1.2.9,2.1-.8,2.4-7.7,3.1-8.4.5-.5-.7,2.9-.7,3.1-.2.7-1.5,4.9-.9,5.5.9.9,6.9-1.7,6.9-1.6.3.3-3.6,2.6-4,2.7s-2.3-.6-2.6-.4,2.7,3.1,2.9,3.5.9.7,1.1,1.1c0,.1.2.3.2.2,0-.5-1.8-1.5-2.2-1.8a34,34,0,0,0-3.7-2.7c-.4.4-3,3.4-3.5,2.9-.1-.1.6-.6.7-.7a7.47,7.47,0,0,0,2.7-3.4Z"/><path id="path1153" class="cls-7" d="M749.86,804.44c-.9-.6-2.7-.7-2.7-1.8s1.8,1.1,2.7,1.5a2.21,2.21,0,0,0,1.6,0c.7-.2,1.1-2.4,1.5-2.9a9.76,9.76,0,0,0,.7-1.6,12,12,0,0,0-.7,2.6c-.3,1.2-1.7,2.3-2,3.3-.1.4,1.1,1.9,1.3,2.6.1.3-.2,1.6,0,1.8s.3-.5.2-.7a12.55,12.55,0,0,0-.7-2.6c-.7-1.1-1.9-.8-1.9-2.2Z"/><path id="path1155" class="cls-7" d="M755,794.24c.2-1.6.3-3.3.5-4.9.2-1.4-.4,2.8-.4,4.2,0,.1.2.2.2.4s-.4.4-.3.3c.4-.2,3.6-2.2,4-1.8.2.2-1.2.8-1.3.9l-2,1.1c-.2,0-.5-.4-.7-.2-.2.4.5,1.7.5,2.2s-.4,1.3,0,1.3,0-.9,0-1.3c0-1.7-1-2.5-2.2-3.7C753.26,792.64,754.16,793.14,755,794.24Z"/><path id="path1159" class="cls-7" d="M738.56,790.54c1.2,1,2.4,1.9,3.7,2.9h.2c1.5-.7,1.9-2.5,2.7-3.7a11.94,11.94,0,0,0,.7-1.5,31.58,31.58,0,0,1-1.6,4.6,4.51,4.51,0,0,1-.7.7c0,.4.7.7,1.1.7a9.27,9.27,0,0,0,4.6-.7,3.08,3.08,0,0,1,1.6-.2h.4c-.3,0-.7-.2-.9-.2-.4.1-7.2,1.2-6.2,2.2.6.6.9,1.7,1.6,2.4.2.2,1.1.7.9.9s-.1-.1-.2-.2c-.3-.3-.9-.6-1.1-1.1-.1-.2-.3-1.9-.5-2-.6-.3-2.4-1.2-3.3-1.1a14.46,14.46,0,0,1-2.9.4c-.3,0-.9-.3-.9,0,0,.5,3.2-.4,3.5-.5s2.4.1,2.4,0-2.2-.7-2.4-1.1c-.8-1.2-1.4-2.1-2.7-2.5Z"/><path id="path1161" class="cls-12" d="M729.46,812.84c2.1-.2,4.1-.4,6.2-.5,1.8-.1,2.4,2.1,3.4,2.1.4,0-2.5-6.3-2.3-6.5s.7.9.8,1c.4,1.4.7,2.8,1.6,3.6.6.6-.2,2.4.3,2.8.2.2,2.3.5,3.1,1.3.1.1.9.4,1,.5.5.5,2,1.6,1.3,1.6-1.4,0-2.7-1.9-3.6-2.3-.2-.1-1.1.2-1.3,0s-.2-.3-.3-.3c-.5.5.2,2.7,0,3.4-.3,1-2.1,5.1-2.1,5.2a4.74,4.74,0,0,0,.5-2.1c0-.6,1.1-6.1,1-6.2-.6-.6-3.6,1.1-4.1,1.3-.7.2-1.8.6-2.6.8-.4.1-1.3-.4-1.3,0,0,.6,8.8-2.6,8.3-3.1-3.1-2.9-6-2.6-9.9-2.6Z"/><path id="path1179" class="cls-9" d="M819.86,727.14c.1,2.1.1,4.1.3,6.2s8.3,3.9,8.3-2.8c0-.2.4-3.6.3-3.6v2.6c-.1.8-.4.3-.8,1-.5.9-.5,2.9-1.3,3.4-2.5,1.3-2.1-4.2-2.6-5.7v-2.1c-.2,0,.3,1.7.3,1.8,0,1.6.5,5.2-.5,6.2-2,1.8-4-5.9-4-7Z"/><path id="path1183" class="cls-19" d="M744.16,713.24a13.05,13.05,0,0,1,.3-3.4c.3-.9,1.7,0,1.7-.1-.2-.5-.8-1.4-.4-1.8,1-1,1.2.9,1.9,1.3.3.1-.1-1.1,0-1.3s.8.3.9.4c.4.4.6,2,1,2.5.3.3-.6.3-.6.4a1.43,1.43,0,0,0-.5,1.3.71.71,0,0,0,.3.6c.4.4-1.3,1-1.6,1.3-.1.1.9-.4,1.2-.1.1.1-.2.4-.3.5s.1.3,0,.4c-.3.6-1.3.8-1.8,1.3,0,0-.4.4-.3.5s.3-.1.3,0a4.48,4.48,0,0,1-2.6.3c-.2-.2,1.3-1.2,1-1.2-.9,0-2-1.5-1.4-2.1a9.23,9.23,0,0,1,.9-.8Z"/><path id="path1186" class="cls-19" d="M801.36,782a9.91,9.91,0,0,1,.4-3.4c.3-.7.8,1.5.9,1.4s-.1-.3,0-.4,1.2-2,1.7-1.6c.3.3.3,1.6.6,1.9s1.8-.3,2.3.3-.8,1.5-.8,1.6-.1.2,0,.3.3-.1.4,0,1.8,1.6,1.4,1.9a9.38,9.38,0,0,1-1.2.9c-.1.1-.4-.1-.5,0s1.2,1.2,1.3,1.4.3,1.4.3.9l-1,.5c-.7.3-1.5-.4-1.7-.4s.1.8-.1,1-.7,1.2-1.3.6a3.92,3.92,0,0,1-.8-1c-.1-.4.1-.7-.1-.9s-.5.5-.5.5a2.48,2.48,0,0,1-.9.1c-.1,0-.2.3-.4.1-.5-.5.2-1.8.4-2.2v-.8a1.7,1.7,0,0,1-.6-.8c0-.1-.5-2.5-.3-2.5.2.4.3.5.5.6Z"/><path id="path1188" class="cls-19" d="M827.06,743.74c.4-1.2,0-3.2,1.2-3.7.9-.5,0,2.1.1,3.1,0,.1.2-.1.3-.1h1a2.18,2.18,0,0,1,.5.8c.3,1-1.3.7-1.6.9s.2.6,0,1-.7.5-.9.6c-.4.4-1-.4-1-.6s.1-.6,0-.6-2.7.7-1.9-2.2a1,1,0,0,1,.5-.6c.6-.6.7.2,1.3.5.1,0-.2-2.4.4-2.1s.4,2.4.1,3Z"/><path id="path1190" class="cls-19" d="M727.26,751.24c-.1-1.2-.6-2.3-.4-3.5.1-.3.8,0,1,.3.5.8-.1,2.8.4,1.9.2-.4,1.5-3.1,2.3-2.3s-.1,2.7-.6,3.2c-.2.2,1.6.9,1.8,1,.5.5-1.3,1.5-1.4,1.6s-.9,0-1,.1.6.7.3,1a5.44,5.44,0,0,1-1.8,0c-.3-.3-.3-1.7-.5-1.9,0,0-.9-.9-.5-1.2Z"/><path id="path1192" class="cls-19" d="M787.56,775c-.2-1.3-.9-2.6-.6-3.9s1.2,2.5,1.6,2.2,0-1.5,1-2.1c.4-.2.7.9.6,1.2,0,.1-.8,2.1-.5,2.1.1,0-.1-.2,0-.3a1.84,1.84,0,0,1,1.6-.5c.3.1-.4,1.7-.5,1.9a3.92,3.92,0,0,1-.8,1.4c-.1.1-.3,0-.4.1s1.1.1.6.6a3.3,3.3,0,0,1-3.2.5,9,9,0,0,1-1-.9c0-.1.4-.7.5-.5.6.6-1.8.4-2.3-.6-.2-.4,0-1.2.4-1.3a9.58,9.58,0,0,1,1.7,0l-.6-.6c-.3-.3.3-1.4.6-1,.4.6.5,1.3,1.3,1.7Z"/><path id="path1196" class="cls-19" d="M715.46,771.44c.4-4.9-.6-1.7-1.6-3.5-.1-.2,0-.9.1-.9a3.08,3.08,0,0,1,2.1.4,6.13,6.13,0,0,1,.4.6,1.31,1.31,0,0,1-.1-.8c.2-.6.8-1,1-.5a2.5,2.5,0,0,1,0,1.9c-.1.2-.3.6-.1.6.8,0,.9-.8,1.3.4.2.7-1.3,2.3-1.6,2.1-.1-.1-.1-.6-.3-.8s-.6.8-.8.9c-.2.3-.2-.4-.4-.4-.5-.2-1.5.3-1.7-.6-.3-1.8,1.6-1.3,1.6-.4"/><path id="path1198" class="cls-19" d="M764.66,735.24c.2-1.2-.2-2.6.5-3.6,1.3-2,.2,3.4.9,2.7.5-.5,2.5-2.4,3.2-1.7s-.6,1.6-.9,1.9c-.1.1-1,.2-.8.4.6.6,1.8-.4,2.2.8.5,1.4-2.9,1.1-3.1,1.3s.3.7.3.9c0,.7-1.5,1.6-2.1,1.6-.8,0-.5-2.2-.5-2.2-.2-.2-1.8,1-2.3-.6a1.09,1.09,0,0,1,.5-1.3c.2-.1,1.3.4,1.2.1-.2-.5-1.2-3.4,0-3.4.2,0,.3.4.4.5.7,1.4.9,1.1.5,2.6Z"/><path id="path1200" class="cls-19" d="M742.46,792.64a16,16,0,0,1,2.1-.5,4,4,0,0,1,.4.3c.5.7-1.3,1.6-1,1.1s1.2.1.8.6a1,1,0,0,1-.5.4c-.4.1-.7.2-1-.2-.1-.1-.1-.7.1-.5.6.6-1.1.7-1.6-.4-.3-.6.7-.5.9-.3s-.3.1-.5.1c-.7-.2-.5-1.5.1-1.6s.2,1,.2,1Z"/></g><path id="path1260" class="cls-20" d="M1531.77,1018.12c67.3-6.9,124.1-48.2,122.5-117.5-1.1-47.7-6.2-100.1-31.2-140.7-21.9-35.5-29-45.5-55.4-65.1a114.83,114.83,0,0,0-29.78-16.27,99.21,99.21,0,0,0-26.33-5.52c-22.3-1.65-37.76,2.4-66,11.84-22.7,7.6-45.9,41.6-56.2,60.6a288.31,288.31,0,0,0-32,97c-3.7,25.9-7.31,54.24-4.41,80.44,2.6,23.3,9.84,38,25.34,52.89,28.2,27,32.24,33.47,83.74,41.87"/><polygon class="cls-21" points="1511.56 673.03 1520.32 774.65 1523.86 939.55 1510.9 1019.64 1493.23 1016.11 1492.06 933.66 1490.88 767.58 1500.3 673.35 1511.56 673.03"/><path class="cls-22" d="M1473.21,678.07s-28.29,60.75-33,82.45c-9.59,44.36-17.85,137-8.24,181.38,4.15,19.2,31.8,71.85,31.8,71.85s-56.43-29.23-66-47.11c-26.68-50-5-174.19,17.67-226.15C1424,721,1473.21,678.07,1473.21,678.07Z"/><path class="cls-23" d="M1537.89,678.55s29.79,44.82,34.26,61.94c12.65,48.44,21.24,146.81,10,195.6-4.66,20.36-39.5,82.37-39.5,82.37s93.62-48.19,100.56-72.05c25.39-87.29-4.76-169.82-39.68-219C1589.63,707.73,1537.89,678.55,1537.89,678.55Z"/><polygon class="cls-24" points="1569.86 733.36 1565.73 731 1552.58 717.3 1551.11 733.64 1535.14 746.41 1553.34 746.92 1549.53 768.42 1566.01 755.99 1576.23 763.59 1575.05 755.33 1570.45 745.15 1571.51 741.17 1569.86 733.36"/><polygon class="cls-24" points="1575.63 805.07 1567.96 786.78 1564.42 805.66 1547.5 802.28 1561.48 815.69 1553.22 832.8 1569.14 824.54 1580.94 832.8 1577.99 814.51 1582.64 806.16 1582.64 800.98 1575.63 805.07"/><polygon class="cls-24" points="1571.63 858.41 1575.76 874.34 1585.66 872.23 1578.98 887.59 1578.11 907.37 1572.81 893.81 1560.42 908.55 1563.96 887.32 1550.39 875.52 1566.32 875.52 1571.63 858.41"/><polygon class="cls-24" points="1538.36 684.8 1529.22 679.04 1530.13 686.88 1522.46 688.07 1532.94 691.57 1528.95 702.22 1539.57 695.73 1550.19 700.45 1542.08 689.88 1543.7 687.48 1542.08 684.12 1538.36 684.8"/><polygon class="cls-24" points="1563.96 692.65 1564.55 700.91 1557.93 690.69 1551.57 690.89 1551.57 684.4 1560.31 687.12 1563.96 692.65"/><polygon class="cls-24" points="1596.99 720.38 1599.35 733.36 1585.78 733.95 1599.94 739.85 1598.74 756.52 1610.35 742.52 1614.1 744.57 1610.95 735.37 1596.99 720.38"/><polygon class="cls-24" points="1635.33 782.91 1638.87 803.55 1621.18 798.24 1637.69 814.17 1628.25 836 1647.13 820.66 1646.99 803.58 1635.33 782.91"/><polygon class="cls-24" points="1651.76 856.9 1647.13 874.34 1633.56 871.39 1642.41 885.55 1632.97 899.7 1651.85 891.45 1654.14 897.7 1657.41 877.75 1651.76 856.9"/><polygon class="cls-24" points="1486.68 677.91 1487.27 683.22 1495.53 684.99 1481.37 692.65 1489.04 703.27 1474.3 696.19 1463.68 702.68 1470.76 692.07 1469.58 687.35 1477.42 684.8 1486.68 677.91"/><polygon class="cls-24" points="1468.4 717.43 1470.16 726.87 1485.5 729.82 1467.22 738.08 1474.88 759.9 1457.19 748.69 1445.98 761.67 1454.24 738.67 1448.98 735.92 1450.7 731 1458.96 728.05 1468.4 717.43"/><polygon class="cls-24" points="1452.38 783.33 1438.81 803.39 1432.33 804.57 1431.71 814.13 1436.11 817.51 1430.56 832.88 1429.38 847.04 1445.89 832.29 1465.36 847.04 1456.51 817.55 1478.34 812.24 1455.92 802.8 1452.38 783.33"/><polygon class="cls-24" points="1448.85 685.93 1442.36 691.24 1452.39 694.19 1438.23 695.96 1432.34 707.76 1425.85 695.96 1434.11 690.06 1448.85 685.93"/><polygon class="cls-24" points="1404.34 727.15 1402.57 737.17 1414.96 743.66 1397.85 745.43 1398.44 764.31 1387.83 753.1 1390.43 739.14 1404.34 727.15"/><polygon class="cls-24" points="1373.28 787.63 1372.69 807.09 1392.16 811.81 1373.28 818.3 1374.46 846.62 1363.25 828.92 1358.53 829.51 1359.87 810.8 1373.28 787.63"/><polygon class="cls-24" points="1571.33 928.38 1572.21 944.54 1579.62 945.63 1569.25 956 1567.09 970.68 1563.37 958.1 1543.9 968.72 1555.55 951.62 1539.18 939.82 1561.01 941 1571.33 928.38"/><polygon class="cls-24" points="1652.35 923.32 1643 941 1627.08 938.64 1635.33 953.38 1620 966.36 1633.56 967.54 1647.88 953.11 1652.35 923.32"/><polygon class="cls-24" points="1444.89 862.58 1451.29 887.32 1476.65 881.42 1458.37 900.88 1465.45 923.89 1445.39 909.14 1428.28 916.81 1434.77 899.7 1428.87 894.99 1427.35 883.46 1437.72 887.91 1444.89 862.58"/><polygon class="cls-24" points="1447.08 939.86 1455.08 951.17 1468.64 950.58 1457.8 961.31 1466.87 976.54 1452.44 969.35 1446.82 975.95 1443.28 969.46 1443.8 962.8 1435.44 952.93 1444.39 952.37 1447.08 939.86"/><path id="path1260-2" data-name="path1260" class="cls-25" d="M241.19,995.38c-55.45-2.83-102.26-19.78-100.94-48.22.9-19.57,5.11-41.08,25.71-57.74,18-14.57,23.9-18.68,45.65-26.72A142.68,142.68,0,0,1,236.15,856a155.75,155.75,0,0,1,21.7-2.26c18.38-.68,38.21,1.45,61.46,5.33,18.71,3.12,40,15.06,48.46,22.86,14.5,13.38,29.66,27.29,33.37,40.26,3.05,10.63,8.32,21.75,5.94,32.5-2.15,9.57-11,16-23.74,22.16-23.24,11.09-35.6,14.12-78,17.57"/><polygon class="cls-26" points="257.85 853.76 250.63 895.46 247.72 963.14 258.39 996.01 272.95 994.56 273.92 960.72 274.89 892.56 267.13 853.89 257.85 853.76"/><path class="cls-27" d="M289.45,855.82s23.31,24.94,27.18,33.84c7.91,18.21,14.71,56.24,6.79,74.44-3.42,7.88-26.2,29.49-26.2,29.49s46.5-12,54.35-19.34c22-20.53,4.16-71.48-14.56-92.81C330,873.45,289.45,855.82,289.45,855.82Z"/><path class="cls-28" d="M236.15,856s-24.54,18.4-28.23,25.42c-10.43,19.88-10.19,62.15-1,82.18,3.85,8.36,25.24,31.9,25.24,31.9S155,975.74,149.32,966c-20.92-35.82,3.93-69.69,32.7-89.88C193.52,868,236.15,856,236.15,856Z"/><polygon class="cls-24" points="209.81 878.51 213.21 877.55 224.05 871.92 225.26 878.63 238.42 883.87 223.42 884.08 226.56 892.9 212.98 887.8 204.56 890.92 205.53 887.53 209.32 883.36 208.44 881.72 209.81 878.51"/><polygon class="cls-24" points="205.05 907.95 211.37 900.44 214.29 908.19 228.24 906.8 216.72 912.3 223.52 919.33 210.4 915.94 200.68 919.33 200.68 916.18 203.11 911.82 200.19 909.88 200.72 906.84 205.05 907.95"/><polygon class="cls-24" points="208.35 929.84 204.95 936.37 201.17 935.56 200.9 938.76 202.29 941.81 202.01 944.31 203.01 949.93 207.38 944.36 217.59 950.41 214.67 941.7 225.85 936.86 212.73 936.86 208.35 929.84"/><polygon class="cls-24" points="235.77 858.59 243.3 856.22 242.54 859.44 248.87 859.93 240.23 861.37 243.52 865.74 234.77 863.07 226.02 865.01 232.7 860.67 231.37 859.68 232.7 858.31 235.77 858.59"/><polygon class="cls-24" points="214.67 861.81 214.19 865.2 219.64 861 224.88 861.09 224.88 858.42 217.68 859.54 214.67 861.81"/><polygon class="cls-24" points="187.45 873.19 185.51 878.51 196.69 878.76 185.02 881.18 186.01 888.02 176.44 882.27 173.35 883.12 175.95 879.34 187.45 873.19"/><polygon class="cls-24" points="155.85 898.85 152.94 907.32 167.52 905.14 153.91 911.68 161.69 920.64 146.13 914.34 146.25 907.34 155.85 898.85"/><polygon class="cls-24" points="142.32 929.22 146.13 936.37 157.31 935.16 150.02 940.97 157.8 946.78 142.24 943.39 140.36 945.96 137.66 937.77 142.32 929.22"/><polygon class="cls-24" points="278.35 855.76 277.86 857.94 271.06 858.66 282.73 861.81 276.41 866.17 288.56 863.26 297.31 865.93 291.48 861.57 292.45 859.63 285.99 858.59 278.35 855.76"/><polygon class="cls-24" points="293.42 871.98 291.96 875.85 279.32 877.06 294.39 880.45 288.07 889.41 302.65 884.81 311.89 890.13 305.09 880.69 309.42 879.57 308 877.55 301.2 876.34 293.42 871.98"/><polygon class="cls-24" points="306.62 899.02 317.8 907.26 323.14 907.74 323.65 911.66 320.02 913.05 324.6 919.36 325.57 925.17 311.96 919.12 295.92 925.17 303.21 913.07 285.23 910.89 303.7 907.01 306.62 899.02"/><polygon class="cls-24" points="310.43 857.7 315.78 859.87 307.52 861.09 319.18 861.81 324.04 866.65 329.39 861.81 322.58 859.39 310.43 857.7"/><polygon class="cls-24" points="357.1 874.16 358.56 878.27 348.35 880.94 362.44 881.66 361.96 889.41 370.71 884.81 366.93 876.97 357.1 874.16"/><polygon class="cls-24" points="387.24 900.79 387.72 908.78 371.68 910.71 387.24 913.38 386.26 925 395.5 917.73 399.39 917.98 397.06 907.11 387.24 900.79"/><polygon class="cls-24" points="141.83 956.48 149.53 963.73 162.66 962.76 155.85 968.81 168.49 974.14 157.31 974.62 145.51 968.7 141.83 956.48"/><polygon class="cls-24" points="311.4 933.47 307.52 941.7 286.61 939.28 301.68 947.27 295.85 956.71 312.38 950.66 325.01 957.19 326.47 953.8 321.13 946.78 325.99 944.85 326.96 941.94 318.7 941.94 311.4 933.47"/><polygon class="cls-24" points="310.99 963.26 304.39 967.91 293.21 967.66 302.15 972.07 294.67 978.32 306.57 975.37 311.2 978.08 314.12 975.41 313.69 972.68 320.58 968.63 313.2 968.4 310.99 963.26"/><path id="path1260-3" data-name="path1260" class="cls-29" d="M87.27,1013.88C37.2,1005-4.14,958.13-1.13,881.15c2.07-53,7.25-111.13,27-155.81C43.12,686.27,48.69,675.28,68.91,654c7.6-8,15.09-13.76,22.67-17.56a53.88,53.88,0,0,1,19.79-5.67c16.7-1.44,34.54,4.76,55.36,15.75,16.75,8.84,35.25,41.63,42.45,62.93,12.29,36.54,25.14,74.53,27.67,109.73,2.09,28.85,6.16,59.08,3.31,88.14-2.55,25.85-10.95,43.22-22.92,59.51-21.76,29.51-33.15,37.47-71.82,45.9"/><polygon class="cls-30" points="111.37 630.73 102.18 743.5 95.23 926.7 102.81 1015.93 116.09 1012.32 119.13 920.71 124.35 736.17 119.78 631.29 111.37 630.73"/><path class="cls-31" d="M139.88,637s19.53,68,22.47,92.2c6,49.48,9.75,152.59,1.42,201.73-3.61,21.26-25.63,79.28-25.63,79.28S181,978.72,188.62,959c21.23-55.14,8.32-193.48-7.28-251.62C175.49,685.59,139.88,637,139.88,637Z"/><path class="cls-32" d="M91.58,636.4s-23.42,49.29-27.21,68.23c-10.71,53.61-13.19,168.08-6.11,222.51,3,22.7,20.84,86.92,20.84,86.92s-68.64-55.2-73.2-81.84c-16.68-97.45,8-188.64,35.35-242.7C52.18,667.92,91.58,636.4,91.58,636.4Z"/><polygon class="cls-24" points="66.27 696.75 69.42 694.2 79.59 679.2 80.56 693.32 92.19 699.13 78.97 708.12 80.03 725.57 68.93 716.05 60.72 730.23 61.82 721.08 65.52 709.85 64.83 705.4 66.27 696.75"/><polygon class="cls-24" points="60.09 776.34 66.29 756.15 68.44 777.19 81.17 773.73 70.38 788.39 76.1 807.54 64.42 798.09 55.4 807.06 55.6 798.54 58.08 786.79 55.56 781.48 56.23 773.25 60.09 776.34"/><polygon class="cls-24" points="61.68 835.69 58.18 853.32 54.81 851.03 54.36 859.68 55.43 867.99 55.02 874.75 55.96 887.44 59.88 875 70.59 887.01 66.65 867.95 77.09 855.07 65.2 854.79 61.68 835.69"/><polygon class="cls-24" points="91.06 643.33 98.04 637.1 97.15 645.8 102.84 647.24 94.93 650.95 97.63 662.86 89.87 655.47 81.82 660.52 88.15 648.91 87 646.22 88.3 642.52 91.06 643.33"/><polygon class="cls-24" points="71.74 651.62 71.08 660.78 76.29 649.54 81.04 649.87 81.21 642.66 74.61 645.53 71.74 651.62"/><polygon class="cls-24" points="46.35 681.85 44.25 696.23 54.37 697.12 43.64 703.43 44.1 721.98 35.8 706.22 32.95 708.42 35.54 698.26 46.35 681.85"/><polygon class="cls-24" points="16.09 750.66 12.91 773.54 26.26 767.96 13.51 785.36 19.99 809.78 6.29 792.41 6.84 773.43 16.09 750.66"/><polygon class="cls-24" points="1.89 832.6 4.89 852.06 15.1 849.02 8.12 864.6 14.8 880.5 0.92 870.99 -0.95 877.91 -2.88 855.67 1.89 832.6"/><polygon class="cls-24" points="129.82 636.59 129.25 642.48 123.03 644.3 133.4 653.07 127.4 664.73 138.6 657.13 146.35 664.52 141.35 652.6 142.35 647.38 136.56 644.4 129.82 636.59"/><polygon class="cls-24" points="142.45 680.83 140.88 691.29 129.35 694.29 142.79 703.79 138.18 723.98 149.81 711.82 157.74 725.57 152.46 704.68 156.46 701.72 155.3 696.22 149.22 692.79 142.45 680.83"/><polygon class="cls-24" points="154.63 754.73 162.43 773.87 167.26 774.73 167.42 783.87 164.05 787.56 167.39 799.38 167.39 812.85 156.86 797.79 141.87 812.85 148.82 787.24 133.07 777.83 149.67 774.58 154.63 754.73"/><polygon class="cls-24" points="158.77 642.51 163.48 648.53 155.91 651.63 166.44 653.84 170.53 667.06 175.69 654.06 169.67 647.36 158.77 642.51"/><polygon class="cls-24" points="200 688.09 201.06 699.26 191.65 706.25 204.37 708.52 203.44 729.49 211.66 717.22 211.83 703.9 200 688.09"/><polygon class="cls-24" points="225.62 760.84 225.55 782.48 210.89 787.38 224.81 794.92 224.79 819.93 232.03 806.9 235.53 807.64 237.64 788.3 225.62 760.84"/><polygon class="cls-24" points="60.07 913.45 58.99 931.39 64.95 959.08 65.24 946.62 79.5 958.76 71.25 939.55 83.78 926.73 67.45 927.65 60.07 913.45"/><polygon class="cls-24" points="-0.29 906.4 6.23 926.21 18.18 923.87 11.63 940.11 22.75 954.8 12.58 955.88 2.27 939.58 -0.29 906.4"/><polygon class="cls-24" points="155.56 840.34 151.52 862.54 132.73 855.54 146.19 874.04 141.88 898.56 155.35 886.9 166.84 898.99 168.13 888.23 163.83 875.76 169.42 869.3 169.12 863.61 161.63 863.44 155.56 840.34"/><polygon class="cls-24" points="152.55 928.39 146.28 940.82 136.17 939.93 143.98 952.04 136.81 968.8 147.78 961.07 151.8 968.5 154.61 961.35 154.4 953.94 160.9 943.12 154.23 942.34 152.55 928.39"/><polygon class="cls-24" points="239.92 850.18 235.04 870.41 217.6 866.92 230.15 882.97 225.12 903.52 240.62 893.43 247.59 879.48 239.92 850.18"/><polygon class="cls-24" points="212.02 938.19 227.45 942.15 237.13 925.64 232.25 948.66 218.12 965.31 206.44 967.49 218.29 952.84 212.02 938.19"/><polygon class="cls-24" points="404.04 930.52 411.38 942.96 407.12 952.5 395.67 959.12 402.4 944.01 390.09 936.1 399.16 937.5 404.04 930.52"/><polygon class="cls-24" points="384.68 973.89 388.16 966.22 391.65 969.7 398.63 969.7 390.25 978.08 377 982.26 372.12 978.08 384.68 973.89"/><polygon class="cls-24" points="1355.43 869.68 1358.86 887.72 1379.47 892.43 1360.58 904.97 1370.02 928.5 1351.13 915.95 1345.98 894.78 1355.43 869.68"/><polygon class="cls-24" points="1375.6 965.39 1361.09 957.55 1368.83 974.8 1384.3 983.43 1398.81 985 1379.47 972.45 1385.27 963.04 1375.6 965.39"/></svg>