<svg id="Layer_1" data-name="Layer 1" xmlns="http://www.w3.org/2000/svg" xmlns:xlink="http://www.w3.org/1999/xlink" viewBox="0 0 1043.43 923.6"><defs><style>.cls-1{fill:#fffdee;}.cls-2{fill:#64230e;}.cls-3{fill:#4d1704;}.cls-4{fill:#3b0f00;}.cls-5{fill:#571a04;}.cls-6{fill:#270a00;}.cls-7{fill:#ff9595;}.cls-8{fill:#f6c0c0;}.cls-9{fill:#ee9898;}.cls-10{fill:#5a3e31;}.cls-11{fill:#573f34;}.cls-12,.cls-15,.cls-18,.cls-28{fill:none;}.cls-12,.cls-15,.cls-28,.cls-29,.cls-30,.cls-31,.cls-32,.cls-33{stroke:#000;}.cls-12{stroke-width:4px;}.cls-13{fill:url(#linear-gradient);}.cls-14{fill:url(#linear-gradient-2);}.cls-15,.cls-18{stroke-linecap:round;}.cls-15{stroke-width:2.37px;}.cls-16{fill:#7a5e5e;}.cls-17,.cls-32{opacity:0.35;}.cls-17,.cls-32,.cls-35{isolation:isolate;}.cls-18{stroke:#3b0f00;stroke-width:1.26px;}.cls-19{fill:#3c1203;}.cls-20{fill:#dc1d1d;}.cls-21{fill:#308869;}.cls-22{fill:#1f1405;}.cls-23{fill:#00b8c5;}.cls-24{fill:#ffc343;}.cls-25{fill:url(#linear-gradient-3);}.cls-26{fill:url(#linear-gradient-4);}.cls-27,.cls-33{fill:#fff;}.cls-28,.cls-29,.cls-30,.cls-31,.cls-32,.cls-33{stroke-opacity:0;}.cls-28,.cls-30,.cls-31,.cls-32,.cls-33{stroke-width:0.56px;}.cls-29{fill:#262626;stroke-width:0.84px;}.cls-30{fill:#0a0a0a;}.cls-31,.cls-32{fill:#dcd3cf;}.cls-34{fill:#191919;}.cls-35{opacity:0.83;fill:url(#linear-gradient-5);}.cls-36{fill:#c3bdb7;}.cls-37{fill:url(#linear-gradient-6);}.cls-38{fill:#fffff8;}.cls-39{fill:url(#linear-gradient-7);}.cls-40{fill:url(#linear-gradient-8);}.cls-41{fill:url(#linear-gradient-9);}.cls-42{fill:url(#linear-gradient-10);}.cls-43{fill:url(#linear-gradient-11);}.cls-44{fill:url(#linear-gradient-12);}</style><linearGradient id="linear-gradient" x1="-927.77" y1="-192.63" x2="-933.93" y2="-187.02" gradientTransform="translate(2778.89 624.79) scale(2.45 2.47)" gradientUnits="userSpaceOnUse"><stop offset="0"/><stop offset="1" stop-opacity="0"/></linearGradient><linearGradient id="linear-gradient-2" x1="192.21" y1="-501.73" x2="186.05" y2="-496.12" gradientTransform="matrix(-1.92, 1.2, 1.3, 2.09, 1547.58, 968.66)" xlink:href="#linear-gradient"/><linearGradient id="linear-gradient-3" x1="-907.37" y1="-133.21" x2="-901.68" y2="-129.66" gradientTransform="translate(2777.02 626.67) scale(2.45 2.47)" gradientUnits="userSpaceOnUse"><stop offset="0" stop-color="#00939e"/><stop offset="1" stop-color="#00939e" stop-opacity="0"/></linearGradient><linearGradient id="linear-gradient-4" x1="-916.73" y1="-131.47" x2="-916.02" y2="-126.13" gradientTransform="translate(2778.89 624.79) scale(2.45 2.47)" xlink:href="#linear-gradient-3"/><linearGradient id="linear-gradient-5" x1="-366.73" y1="-42.11" x2="-365.84" y2="61.59" gradientTransform="translate(2668.14 636.77) scale(5.85 2.47)" gradientUnits="userSpaceOnUse"><stop offset="0" stop-color="#cca77d"/><stop offset="1" stop-color="#cca77d" stop-opacity="0"/></linearGradient><linearGradient id="linear-gradient-6" x1="523.77" y1="609.73" x2="509.05" y2="693.21" gradientTransform="matrix(1, 0, 0, -1, 0, 825.66)" gradientUnits="userSpaceOnUse"><stop offset="0" stop-color="#00939e"/><stop offset="0.19" stop-color="#0098a3"/><stop offset="0.41" stop-color="#00a5b1"/><stop offset="0.62" stop-color="#00b8c5"/></linearGradient><linearGradient id="linear-gradient-7" x1="471.75" y1="649.45" x2="487.52" y2="649.45" gradientTransform="matrix(1, 0, 0, -1, 0, 825.66)" xlink:href="#linear-gradient-3"/><linearGradient id="linear-gradient-8" x1="470.01" y1="660.73" x2="481.57" y2="660.73" gradientTransform="matrix(1, 0, 0, -1, 0, 825.66)" xlink:href="#linear-gradient-3"/><linearGradient id="linear-gradient-9" x1="475.7" y1="633.57" x2="498.37" y2="633.57" gradientTransform="matrix(1, 0, 0, -1, 0, 825.66)" xlink:href="#linear-gradient-3"/><linearGradient id="linear-gradient-10" x1="557.83" y1="674.95" x2="546.74" y2="663.85" gradientTransform="matrix(1, 0, 0, -1, 0, 825.66)" xlink:href="#linear-gradient-3"/><linearGradient id="linear-gradient-11" x1="553.53" y1="680.67" x2="547.63" y2="674.77" gradientTransform="matrix(1, 0, 0, -1, 0, 825.66)" xlink:href="#linear-gradient-3"/><linearGradient id="linear-gradient-12" x1="556.87" y1="662.76" x2="562.94" y2="652.24" gradientTransform="matrix(1, 0, 0, -1, 0, 825.66)" xlink:href="#linear-gradient-3"/></defs><path id="path2909" class="cls-1" d="M67.15,540.28c-30.8-180.8,47.4-362.7,199.3-463.8A455.87,455.87,0,0,1,768.15,74c152.9,99.5,232.9,280.7,203.9,461.7"/><g id="g3627"><g id="g3247"><path id="path3097" class="cls-2" d="M305.19,299.31c-7.06-3.46-12.27,3.82-18.87-2.8-20.18-20.26-32.73-48.07-54.77-70.19-.75-12.6-4.74-16.33-4.93-19.78-.84-10.74-.84-19.6-9.86-30.8-4.37-5.32-15.34-24-17.85-20.72s-3.53,3.54-5.12,6.9c-2.51,5.42-1.2,19.14,1.49,27.91s.56,12.79-3.25,12.79C177.52,194.87,134.1,143,112.71,144c-9.58-.74-16,10.36-17.2,13.72-1.4,21.1,4.74,26.32,11.71,36.87,5.49,8.31,17.48,17.64,24.09,24.08,23.89,23.24-53.66-12-32.18,14.19,10.14,12.41,32.92,14,42.31,24.45,6.88,7.65,9.11,8.58,18.79,14.84,36.35,23.33,84.52,65.8,119.39,77.46,6.79,2.24,14.32-2,19.81-3.82,5.95-2,10.88-2.34,16.09-7.56,11.62-11.67,2.88-39.48-7.54-47.42"/><path id="path3099" class="cls-2" d="M729.5,301.08c6.6.65,13.21,1.59,19.81,1.87,8.55.37,63.7-61,78.48-70.93,10-6.72,4.65-14,10.14-24.83,3.07-6.25-3.54-26.41-5.49-43.12-.19-1.31,9.86-5.41,15.25-2.8,14.51,5.32,11.25,23.89,11.81,34.81s2.32,7.94,8.18,5c25-12.5,33.57-23.61,58.59-55.53,1.2-1.59,3.9-.75,7.06,1.49a55.64,55.64,0,0,1,10.23,10.55c3.35,4.39.09,4.2,1.86,9.15s8.46,14.93,6.79,18.48c-8.93,19.41-9.58,24.92-22.88,38.26-4.27,4.3-6.41,8.4-6.88,11.3s.75,4.48,3.26,3.64c1.11-.38,8.74-1.87,16.08-5.32s14.6-8.87,14.88-8.59c4.65.65,6.61,1.49,7.07,3,2,6.06-10.88,16.42-14.23,20-13.29,11.29-26,6.34-37.84,17-11.63,9.71-31.43,16.62-39.24,19.42-12.65,6.16-13.12,14.46-19.44,18.66-11,4.95-14.88,6.44-24.36,9.9-17,8.58-47.61,20.62-58.68,31.73-3.62,3.64-40,2.89-45.28-2.33-4.47-4.58,10.13-30,4.83-40.79Z"/><path id="path3101" class="cls-3" d="M472.76,229.59l-152.41,49s-45.84-25-12.92,18c0,0-32.92,0-7,11,0,0-50.77,9-1,12,0,0-32.92,23,5,13,0,0-8,38,24.92,15,0,0-9.95,50,13.95,10,0,0,8,27,15,8l351.68,6s40.83,9,19.9-15c0,0,34.87,0,19-21,0,0,42.87-12-6-13,0,0,29.85-9.33-7.07-16.33,0,0,44.17-21.56-2-19.6,0,0,32.92-16-11-9L557.38,210.64Z"/><path id="path3103" class="cls-4" d="M470.06,187.22c-31.61,31.36,1,43.86,1,61.87,0,15.31-4.37,41.82,0,58.15,3.81,14.19,17.66,24.83,28.54,31.55,34.41,21.27,55.42.84,80.53-30.34,13.67-16.89-1.95-54-7.16-67s8.74-27.16-2-40.41c-12.28-15.21-26-18.95-44.92-18.95-16.36.1-42-7.84-56,5.14Z"/><path id="path3105" class="cls-5" d="M632.7,93.14c-16.27,5.51-32.64,11-48.91,16.52-7.91-5.13-15.81-10.92-25.29-12.41-19.16-2.43-38.5.37-57.47,3.17-21.11,3.73-42.4,7.75-62.21,16.24-6.32,3.92-10,10.92-11.9,18-3.26,7.19-11.16,12.23-19.07,11l-35.33-2.52c3.53,3.92,7.34,7.56,10.6,11.76-.19,1.5-1.3,3.08-.56,4.67,9.3,3.08,16.37,10.73,25.67,13.91A5,5,0,0,1,412,179c.46,1.68,2.79,1.68,4,.75,4.55-1.87,8.18-6.07,13.39-6.16,2.69.09,3.72,4,1.95,5.79-.74,1.49.37,3.64,2.14,3.45a2.48,2.48,0,0,1,1.21,4.2c-1.68,2.15-5.12,2.8-5.58,5.79-.19,2.24,2.32,3.26,4.18,3.54,1.68.28,3.91.56,4.56,2.52.84,1.78,1.67,4.2,4,4.2,1.95.19,4.65,1,4.93,3.36,0,2.15-2.14,4.2-1,6.35,2.79,2.71,6.79,3.73,9.12,6.91,9.48,9.14,20.27,16.7,31.24,23.89,1.21-1.4-.19-3.17-1.11-4.2-.56-.28-1.12-1.4-.1-1.49,2.7-.38,4.84,1.68,7.16,2.61,10.6,5.78,17.95,16.14,22.13,27.25,3.07,7.37,5.68,15,10.33,21.56,2.88.93,5.3-1.49,7-3.55,4.28-5,10.51-8.21,14-13.9,2.88-5,4.19-11.39,2.23-17-.93-2-3.07-3.45-3.07-5.79.84-2.61,3.91-3.64,4.56-6.34,2.05-5.23-.19-11.2-4-14.93-3-3.36-6.6-6.82-6.88-11.48-.09-1.87.19-4.39,2.05-5.32,1.58.37.83,2.42,1.39,3.54,1.49,4.86,5.77,7.84,9.21,11.2,3.53,3.18,6.51,7.19,7.06,12a104.68,104.68,0,0,1,1.21,12c2.89-1,3.44-4.39,4.56-6.81,5.49-13.44,10-27.44,17.39-40,2-2,4.65-3.08,6.88-4.67-1.21-1-3,0-4.19-1.12,1.49-5.78,7.91-8.4,9.4-14.18.37-3.08-3.44-4.86-2.89-7.84.75-2,3.82-2.34,3.82-4.67-.47-2.8-3.82-4.57-3.17-7.65,1.68-5,.1-10.08-1.11-14.84-.65-4.67,3.44-9.62,8.28-9.06,3.62-.09,7.43,1.12,10.87-.46,1.68-1.78,1.12-5.13,3.72-6.16,5.68-3.45,8-10.17,13-14.28,1.12-2.15-2.23-3.83-1-6,2.32-6.44,5.86-12.42,8.18-18.86a.71.71,0,0,0-.37-.09Z"/><path id="path3107" class="cls-4" d="M431.29,173.4l-5.67.84-13.58,8-.47-7.56-8.92-1.4-9.39-8.49-12.65-7.1,1.86-3.26-20.55-19S386,138.59,398,137.75c11.62-.84,34.22-7.09,34.22-7.09Z"/><path id="path3109" class="cls-4" d="M592.34,140.27l17.39-.75.93-5.59,7.07-2.8,1.39-4.67,8.93-9.43-2.32-2.8,7.62-32.38s-19.06,11.2-29.48,14.93c-8.27,2.89-25.66,5.51-25.66,5.51Z"/><path id="path3111" class="cls-5" d="M518.79,44.51c-15.81,4.67-30.69,12-46.22,17.55-2.32.65-5.2.09-6.5-2.15a4.61,4.61,0,0,0-5-1.68c-7.71,1.12-14.5,5.6-20.27,10.55A148.86,148.86,0,0,0,425.34,83.9c-5.21,6.81-5.58,11.2-7.16,19.51-1.12,6.34-1.31,13.06,1.2,19,1.59,3.64,2.89,16.61,6.42,17.26.93,1.77-.37.28.19,2.15,1.67,1,4.93,9.14,6.13,7.84,12-10.55,25.39-26.79,40.55-31.55,16.08-4.76,32.92-6.34,49.65-6.9,9.86-.1,19.62,2.42,28.74,6.06,7,2.62,14.22,5.32,21.76,5,2.79-.19,11,.37,12.08-2.05,1.21-2.62-.09-7.56.93-10.27,1.68-5.13-.55-11.29-1.48-16.8-.84-5.32-3.35-10.08-6.14-14.56-4-6.07-9.39-11-15.06-15.49a73.35,73.35,0,0,0-8.65-5.23c-1.77-1.21-3.63-3.36-3-5.69.28-1.4-.18-3.08-1.77-3.36-2.69-.94-5.39.46-7.9,1.21-5.67,2-11,5.32-17,5.6-2.41,0-4-2.43-4.37-4.67-.37-1.58,0-3.26,0-4.85-.09-.84-.74-1.77-1.67-1.59Z"/><path id="path3113" class="cls-6" d="M518.88,296.13c2,3.55,8.09,5.32,5.58,10.36C508.56,338.41,524,306.4,518.88,296.13Z"/><path id="path3115" class="cls-7" d="M464.21,233.32l-1.77,11.86L521,316.11l52.17-51.43,7.81-39.1-5.58-8,4-4,10,8h7l99.59,40,11-13,21.94,11,5.95,34-29.94,108-26.87-5-6,128.89-142.46-5L398,526.47l-9.95-133.74-2,14-28.91-1-11-21L317.28,270.56l26.88-15,11,8,96.61-30,7.91-7.65Z"/><path id="path3117" class="cls-6" d="M720.57,349a49.26,49.26,0,0,0,9.4,3.36,36.92,36.92,0,0,0,9.67.93,24.07,24.07,0,0,0,9-3,36.82,36.82,0,0,0,8.37-7.75,9.48,9.48,0,0,0,1.11-2.8c.65-3.17-.56-5.88-2.6-8.12a20.12,20.12,0,0,0-7.07-3.92,30.54,30.54,0,0,0-7.07-1.21c-1.76-.19-1-.19-2.88,3.45-.09.19.47,0,.75,0,1,0,2,0,3.06-.09,3.54-.75,6-3.92,6.79-7.28.37-1.78.84-3.46,1.12-5.23a3.77,3.77,0,0,0-2-4.11,16.51,16.51,0,0,0-5.58-.84,12.24,12.24,0,0,0-5.76.84L734,316.85h0a11.54,11.54,0,0,1,5.57-1,14.91,14.91,0,0,1,5.4.65,3.21,3.21,0,0,1,1.67,3.73c-.28,1.78-.74,3.46-1.11,5.23a7.71,7.71,0,0,1-.65,1.87c-.19.28-.84,1-.56.84,5.58-4.39,2.6-2.24,1.11-1.78-4.65.56-2.88-1.4-7.44,3.64-.09.1.28,0,.38,0a30.67,30.67,0,0,1,7.06,1.12,18.2,18.2,0,0,1,6.88,3.74c2.05,2.24,3.07,4.76,2.33,7.74-.19.47-.28.94-.47,1.4s-1.11,1.4-.74,1.22c.93-.38,1.49-1.4,2.32-2,.47-.28-.74.74-1.2,1.12-.19.18-2.79,2.05-3,2.14a24.5,24.5,0,0,1-8.83,3.18,37.05,37.05,0,0,1-9.58-.84,46.27,46.27,0,0,1-9.3-3.36L720.57,349Z"/><path id="path3119" class="cls-8" d="M695.93,261.6l11-13,21.94,11,5.95,34-29.94,108-26.87-5,20.27-101.83Z"/><path id="path3121" class="cls-6" d="M328,305a78.76,78.76,0,0,0-11.16-2.24c-4-.19-8.56-1.49-12.18.47-1.68,1.4-1.86,3.64-1.49,5.69a10.51,10.51,0,0,0,5.86,4.67,27.31,27.31,0,0,0,6.69.84H322c.18,0,.55.18.55,0-.09-.84,0-.75-.65-.75-1.67.09-3.44,0-5.11.19-1.49.09-4,3-4.84,3.92a49.34,49.34,0,0,0-6.41,7.46c-.75,1.59-1.86,3.55-1.77,5.42a3.39,3.39,0,0,0,.28,1c2.23,2.9,6,4,9.48,4.95a45.41,45.41,0,0,0,18.79.09,67.21,67.21,0,0,0,10.32-3.45l-4.56-.56h0a81.49,81.49,0,0,1-10.23,3.45l-2.51.56c.56.1,2.24.1,1.68.28a8.16,8.16,0,0,1-2.61,0,34.94,34.94,0,0,1-6.32-.84c-3.35-.93-6.88-2-9.39-4.48a3.08,3.08,0,0,1-.28-.84c-.09-1.77.93-3.73,1.77-5.22a42.74,42.74,0,0,1,6.32-7.38,13.72,13.72,0,0,1,3.25-2.89,4.52,4.52,0,0,1,.93-.47c.19-.09.93-.18.65-.18-1.39-.1-2.78,0-4.09-.1.56,0,.47.1.56-.74h2.33a27.17,27.17,0,0,1-6.7-.66,10.28,10.28,0,0,1-5.86-4.2c-.46-1.86-.18-3.92,1.4-5,1.67-.74,4.65-.65-1.3-.65-.47,0,.93,0,1.39.09,1.49.1,1.49.1,3,.28a65.75,65.75,0,0,1,11.15,2.24L328,305Z"/><path id="path3123" class="cls-8" d="M317.28,270.65l26.88-15,11,8h0L351.22,268l25.67,111.62L387,393.85l-1.95,14-28.92-1-11-21Z"/><path id="path3125" class="cls-9" d="M343.51,387a11.24,11.24,0,0,0,3.16,4.76c15.34,12.6,36.17-8.59,33.38-10.46-6.42-4.38-10.6,15.22-19.62,12.79C356.15,393,346.48,381.81,343.51,387Z"/><path id="path3127" class="cls-9" d="M683.84,362.12c-9.85-.56,1.68,9.42,3.54,11.29,3.62,3.64,16.46,5.69,22.5,5.69,3,0,1.67-6.53,3.53-5.69,1.31.65,4.56,6.72,2.79,8.49-7.62,7.66-32.36-7.65-36.63-12-1.4-1.4,3.81-6.06,4.27-7.74Z"/><g id="g3133"><path id="path3129" class="cls-10" d="M602.85,45.45c-1.49,1.21-.93,3.26-.46,4.85,1.67,6.72,4,13.35,4.46,20.25A68.12,68.12,0,0,1,604.8,90.9l21.67-.56c.19-7.65-.65-15.49-3.72-22.49-3.53-8.4-10-15.22-17.11-20.72a25.59,25.59,0,0,0-2.6-1.87.21.21,0,0,1-.19.19Z"/><path id="path3131" class="cls-10" d="M615.78,88.1A24.64,24.64,0,0,0,604.9,91c-.84,4.2-1.68,8.87-4.93,12-3,2.71-6.88,3.92-10.51,5.51-1.86.74-3.72,1.3-5.67,2l4.74,24c1.77,8.87,20.64-8.58,27.43-14.56,5.49-5.22,8.65-12.41,10.6-19.6a30.64,30.64,0,0,0,0-9.7,11.78,11.78,0,0,0-4.27-1.87,25.26,25.26,0,0,0-6.51-.56Z"/></g><path id="path3135" class="cls-11" d="M446.91,160.8c4.74-3.26,7.72-4.76,11.25-8.3,15.9-16-17.85-31-23.9-18.95-3.44,6.81-2.32,14.56,0,20.25,1.58,3.83,4.19,5.51,6.61,8"/><path id="path3137" class="cls-12" d="M444.58,158.19s-10.78-12.32-4.46-19.32c7.81-9,16.27,7.47,16.27,7.47"/><path id="path3139" class="cls-5" d="M585.46,109.38c16.65-1.4.19,6.72.47,7.09,2,2,20.83-.84,3.25,8-2.23,1.12,15,.09,11.72,6.63-1.3,2.52-11.16.46-12.18.46-7.54,0-12.46-16.52-6.14-19.78"/><path id="path3141" class="cls-11" d="M558.87,131.87c39.15,36.87,26.41-42.46,5.3-21.28-4.37,4.39-8,8.78-8,17.27"/><path id="path3143" class="cls-12" d="M563.05,127.39s2.61-16.14,10.88-10.92c9.21,5.23,1.49,23.24,1.49,23.24"/><path id="path3145" class="cls-13" d="M488.48,148.3c6-5.7,21.2.56,26.13-4.48,1.3-1.31,7.25-.47,5.39-.47-3.63,0-5.39.56-5.39,3.92,0,15.49-.19,7.09-8.37,15.31-1.58,1.58-30,4.85-24.65-6,1.77-3.45,3.44-6.53,6.89-8.3Z"/><path id="path3147" class="cls-14" d="M537.39,140.18c-7.72-1.87-16.37,10.82-22.78,9-1.68-.47-6,3.17-4.56,2.24,2.79-1.77,4.56-2.15,6.32.65,8.18,13.16,3.91,6,14.69,8.87,2.05.56,26.13-10.64,16.18-17.17-3.34-2-6.23-3.83-9.85-3.64Z"/><path id="path3149" class="cls-6" d="M484.1,145c19.9-5.32,37.67-8.49,54.12-8.12,3.44.1,6,4.85,6,4.85l-17.11,2.8-5.58,7,2.79,3.55,11.9,3.45L495,163.51l11.16-4.95,2.14-4.85-6.41-5-20.37,3.55C481.59,152.22,480.85,146,484.1,145Z"/><path id="path3151" class="cls-15" d="M475.55,168.46s41.84-.75,81.55-14"/><g id="path3153"><path class="cls-16" d="M521.11,140.92a11.62,11.62,0,0,1,0-1.77c.28-1.87,33.85-2.05,11.53,1.31-3.81.56-7.71.09-11.53.46Z"/></g><g id="path3155" class="cls-17"><path class="cls-16" d="M522.42,156.23c.18-.28.28-.56.46-.84.56-.84,14.32,3,4.28,2-1.58-.09-3.07-.84-4.74-1.12Z"/></g><path id="path3157" class="cls-18" d="M479.27,137.84c-10.6-6.25-7.16-10.82,4.74-7.83,3.72.93,7.07,3.82,9.67,4.48"/><path id="path3159" class="cls-18" d="M501.49,129.35c-.28-4.48-1.21-9-.74-13.44.37-4.1,1.67-3.64,3.91-3.64,7.25,0,8,10.18,10.69,13.91"/><path id="path3161" class="cls-18" d="M531.34,127c3-4,13-18.39,11.81-5.51-.28,2.52-2.14,4.48-2.6,6.82"/><path id="path3163" class="cls-4" d="M523.53,227.35m-1.11,3.36c-2.14,3.92-5.12,7.65-5.3,12.23-.28,5.87,3,11,5.11,16.23,1.95,4.39,3.16,9.71,1,14.28a4.54,4.54,0,0,1-2.14,2.24c-1.76-.84-1-3.17-1.48-4.76a38.59,38.59,0,0,0-6.88-17.54c-1.21.09-.66,1.68-.19,2.24a30.56,30.56,0,0,1,0,23.42c0,1.78,1.77,3.08,1.77,4.86.83,4.2-1.21,8.68.55,12.78a2.67,2.67,0,0,0,4.28.56c2.61-2.05,3.63-5.41,5.3-8.12,3.63-6.81,4.65-14.65,5.67-22.21.47-5.69-2.41-10.92-5.67-15.31-2.32-3.36-4.18-7.83-2.51-11.85,1.21-3,3.26-6.25,2.14-9.61-.09-.47-.65-1.87-1-.84a4.89,4.89,0,0,1-.65,1.4Z"/><g id="g3169"><path id="path3165" class="cls-11" d="M377.07,80.45c-3.71,3.45-5,8.58-5.95,13.44a126.57,126.57,0,0,0-1.95,22.21,52.06,52.06,0,0,0,3.72,17.27c6.32-2.06,12.37-5,18.78-6.63l2.61-.84a162.63,162.63,0,0,1-9-22.59c-1.4-4.1-3.35-8.12-4.65-12.32-1-3.54-1.58-7.18-3.07-10.54-.19-.1-.37,0-.47,0Z"/><path id="path3167" class="cls-11" d="M384.42,124.69c-5,.28-9.95,3.73-11.25,8.77.19,1.77,1.39,3.26,1.95,4.85a34.19,34.19,0,0,0,8.37,11.48,49.45,49.45,0,0,0,23.62,11.85c6.51,1,13.2.28,19.71-.37l4.75-.56c-1.77-7.84-3.63-15.68-5.4-23.43a50.88,50.88,0,0,1-22.41-2.7c-4-1.87-6.6-5.6-9.67-8.49a22.64,22.64,0,0,0-9.67-1.4Z"/></g><path id="path3171" class="cls-5" d="M430.73,146.52c.09-6.9-14.23-2.52-10.32,1.4,1.76,1.78,6.41,1.31,8.46,2.34.09.09-5.21,1.68-4.65,2.8.93,1.77,6.23,0,5.58,1.86-.37,1-7.63,6.44-4.65,9.43C432.5,171.82,434.73,153.24,430.73,146.52Z"/><path id="path3173" class="cls-19" d="M219.65,251.52c-5.31,1-10.05,3.55-14.7,6.35-5.95,3.82-11.34,7.28-15.53,13l12.93.84h0c3.9-5.41,9.48-9.05,15.16-12.51,4.74-2.61,9.67-5.22,15.15-5.6l-13-2Z"/><path id="path3175" class="cls-19" d="M831.32,241.91c3.26,1.59,7.35,4.2,9.67,7,.56.74,1,1.58,1.59,2.33,2.6,4.76,3.53,10.08,5.3,15.12a10,10,0,0,0,4.74,5.79c5,1.86,10.6.56,15.81.56a7.64,7.64,0,0,0,2.51-.56l-13.11-1.78h0c-.56.1-4.37.28-2.42.28,22.22.19,14.69.47,10.23,0a7.87,7.87,0,0,1-4.84-4.76c-1.95-5.13-3-10.54-5.39-15.4-.56-.84-.93-1.77-1.58-2.61-2.33-3.08-6.33-5.41-9.39-7.56Z"/><path id="path3177" class="cls-6" d="M154.55,216.15a27.21,27.21,0,0,1,5.12-10.08c2.23-2.43,5.11-3.45,8.27-3.92,1-.09,2.14-.19,3.17-.19l-4.38-.65h0c-1,0-2.13.09-3.16.19a13.75,13.75,0,0,0-8.27,4.29,30,30,0,0,0-5.21,10.36Z"/><path id="path3179" class="cls-6" d="M158.09,206.35c-.65-.47-1.4-.93-2.05-1.49-10.41-8.87-18.88-19.7-27.24-30.52-2.05-2.71-4.19-5.51-6.14-8.22-1.77-2.42-3.54-4.94-5.21-7.46-3.44-4.95-4.56-5.79-7.35-11.11-.55-1-.93-2.15-1.39-3.17-3.91.37,0-1.22-3.25,2.7a27.71,27.71,0,0,1,3.06,3.55c2.89,5.32,1.58,3.36,5.12,8.31,1.77,2.52,3.53,5,5.3,7.46,2,2.8,4.09,5.51,6.23,8.22,8.28,10.82,16.64,21.56,26.78,30.61.65.56,1.3,1,2,1.49Z"/><path id="path3181" class="cls-6" d="M891.12,202.43c1.86,3.73,3.44,6.53,7,9A20.39,20.39,0,0,0,901,212.7l4.37-.56h0a23.55,23.55,0,0,1-2.88-1.12c-3.53-2.24-5.11-5-6.88-8.68l-4.46.09Z"/><path id="path3183" class="cls-6" d="M904,211.11a64.15,64.15,0,0,0,12.55-7.84c5.77-4.48,9.39-10.17,12.37-16.8,2.6-5.32,3.53-11,4.56-16.8.37-1.59.74-3.27,1.11-4.85l-4.37-.1h0c-.37,1.59-.74,3.27-1,4.86-.93,5.69-1.95,11.38-4.47,16.7-3,6.54-6.5,12.23-12.36,16.62a61.91,61.91,0,0,1-12.74,7.84l4.37.37Z"/><path id="path3185" class="cls-6" d="M907.3,202.62a39.36,39.36,0,0,0,7.06,2.24l4.56-.66h0a26.83,26.83,0,0,1-7.07-2.24Z"/><path id="path3187" class="cls-4" d="M494.89,199c1.21,3.36,2.23,7.28.56,10.73-1.4,3.55-3.91,6.72-4.09,10.64.46,1,1.76-.19,1.49-1a13.59,13.59,0,0,1,2.32-4.85c-.19,3.36-1.12,6.81.37,10,1,2.89,3.07,5.78,2.51,9,.37,2.8,3.26,3.92,5.3,5.13a11.37,11.37,0,0,1,3.63,3.64c.28-4.38-2.51-8.12-5.49-11a20.71,20.71,0,0,1-4.55-6.07,16.77,16.77,0,0,0,4.65,4.58c-3.26-3-6.23-7.28-5.49-11.95.47-3.27,3.07-5.88,3.44-9.24-2.23.47-3.25,2.8-4.56,4.39-.09-1.4,1.21-2.43,1.58-3.74,1.68-3.36,1.31-7.84-1.67-10.26Z"/><path id="path3189" class="cls-6" d="M553.57,262.25c-.1,2.15,2.88,6.72,1.39,9-2.14,3.18-6.32,7.66-8.92,9-1.77.84-3.35,5.6-1.4,5.6s.28-4.38,1.4-6.16c4-5.88,7.53-8.49,7.53-17.36Z"/><path id="path3191" class="cls-4" d="M537.11,171.26c1.77,4.29,5.3,7.84,5.76,12.6.19,1.4-1.21,2.24-2.14,3-2,1.31-4.27,1.59-6.5,2.15-3.07,1.21-5.58,4.76-4.47,8.12a87.68,87.68,0,0,1,3.35,15.49c0,.56.65,1.59.56.47,0-5.41-.47-11.11,1.76-16.15a19.17,19.17,0,0,1,3.91-4.29c1.58,1.12.65,3.45,1.95,4.76a5.62,5.62,0,0,0,1.86,1.77c2.33-2.7,1.86-6.62,3.26-9.8,1-3.45.46-7.56-2.23-10.17-2.33-2.71-5.21-4.85-7.07-8Z"/><path id="path3193" class="cls-4" d="M568.17,202.34c-3.54,4.94-3.91,3.54-3.35,9.33.46,4.39,5.49,8.31,7.25,12,.93,1.77-1.39,8.49-.65,9.33.37.37,5-5,5.3-5.32.56-.56-8.37-23.61-9.3-29.31"/><path id="path3195" class="cls-20" d="M459.74,226l-7.9,7.65L447.19,250l-2.14,8-2.14,8,5.58-.47,5.58-.46,5.58-.47,5.58-.47-3.72,6.35-3.72,6.35-7.53,12.69,39.8,19.32,39.8,19.32-67.7-83,2.32-11.85Z"/><path id="path3197" class="cls-20" d="M589.27,221.66l19.53,35.93-24.36.93L606,286.71l-85.08,29.4,52.16-51.43,7.82-39.1-5.58-8,4-4Z"/><path id="rect3199" class="cls-21" d="M601.08,349.52l33.48-3.08a10.57,10.57,0,0,1,11.53,9.61l4.19,45.55a10.59,10.59,0,0,1-9.58,11.57l-33.48,3.08a10.57,10.57,0,0,1-11.53-9.61l-4.18-45.55A10.58,10.58,0,0,1,601.08,349.52Z"/><ellipse id="circle3201" class="cls-22" cx="527.44" cy="343.73" rx="5.86" ry="5.88"/><ellipse id="circle3203" class="cls-22" cx="534.04" cy="399.64" rx="5.86" ry="5.88"/><ellipse id="circle3205" class="cls-22" cx="536.74" cy="454.8" rx="5.86" ry="5.88"/><ellipse id="circle3207" class="cls-22" cx="538.04" cy="517.33" rx="5.86" ry="5.88"/><path id="path3209" class="cls-4" d="M551.71,251c4.65,1.77-21.67,20.72-17.86,20.72,1.31,0,4.65-1.87,3.72-.93C506.89,301.64,569.93,275.32,551.71,251Z"/><path id="path3211" class="cls-23" d="M465.41,231.27l59.05,59.26,15-7.56.93,4.67,37.48-65.89-6.6,43.3-28.09,25.39h31l15,38.55-39.34-8.5-9.39-21.65,11.25,67.76-26.22,22.58,2.79-83.71-20.64-4.67-45-58.33Z"/><path id="path3213" class="cls-4" d="M481.41,51.51c.09,5.51-16.27,16.34-13.11,17.92,8.27,4.2,20.45-9.89,19.71-7.56-5.95,17.83-16.27,3.18-25.29,12.23-.93.93-4.65,1.87-3.72.93,7-7.09,4.09-17.45,22.41-23.52Z"/><path id="path3215" class="cls-4" d="M510.42,85.39c-9.76-11.66-8.09-7-15.9.94-1.3,1.3-1.49-12.6.93-15,4-4,11.53,2.15,14,4.67,2.23,2.24-1.3,11.66.93,9.42,3.26-3.26.56-16.42,3.72-13.16,6.14,6.07,6.7,18.39-3.72,13.16Z"/><path id="path3217" class="cls-24" d="M599,140c-.84,18.39,33.1,7.65,12.46-9a2.78,2.78,0,0,0-4,1.4c-1.21,3.27,6.6,4.3,6.51,7.56-.09,2.33-1.3,4.57-5,4.85-8.65.66-1-6.53-10-4.85Z"/><path id="path3219" class="cls-25" d="M538.6,297.07l28.08.93,6.6,18.85Z"/><path id="path3221" class="cls-26" d="M523.53,296.13l11.25,8.5,4.65-5.6,2.79,19.78h-15l.93-13.16Z"/><path id="path3223" class="cls-27" d="M592.72,369.77l53.93-4.67-.47-1.21-54.39,4.48Z"/><path id="path3225" d="M607.41,365.1l-.1-1.86-1.39-.84.56-2,.74-.1,1.3-1.58,2.24.18,1.3-2.24,1.76-.65,4.1,1.21a15.57,15.57,0,0,0,2,6.07c1.58,2.33,4.74-5.51,4.74-5.51l2.42.38,1.11,2.7-.93,2.43,1.12,1,.28,3.45-1.49.65V365.1l-1.21-.74-.56,1.58-2.6,3.08-1.21-.09,2.14-3-.46-.65-3.54.47,1.12,2-.56,2-1.77-2.43-2.14-1,.38,1.68-1.49,2h-1.49l1.12-1.4-.47-3.26-3.07-.75-2,.75v1.86l-.93-1.77Z"/><path id="path3227" class="cls-28" d="M894.28,385.92s19.9,6.62,41.75,2"/><path id="path3229" class="cls-29" d="M627,410.37c3.53-1.59,7.07-3.08,10.6-4.67,2.7-1.3,5.49-2.42,8.18-3.64l-.46-6.81h0c-2.79,1.21-5.49,2.43-8.19,3.64-3.53,1.59-7.06,3.08-10.69,4.57Z"/><path id="path3231" class="cls-30" d="M596.16,354c.18,1.21,2.69,3.73,2.79,4.94l2.88-1.21-1.21.75c-1.12.65.93-3.27.74-4.48l-5.76,1.21Z"/><path id="path3233" class="cls-31" d="M611.31,338l2.7-16,7.25,2.71-2.69,16s-7.26,1.3-7.26-2.71Z"/><path id="path3235" class="cls-32" d="M610.57,338.69l2.7,12.6,7.25-1.3-2.7-10.64Z"/><path id="path3237" class="cls-33" d="M601.08,387.22a11.91,11.91,0,0,1,.75,2.43c.09.56.09,1.12.18,1.68v2.8a2.84,2.84,0,0,0,.19.93l4.37-.09h0a3.74,3.74,0,0,0-.19-.93v-2.8a11.93,11.93,0,0,0-.18-1.78c-.19-.84-.47-1.68-.75-2.52l-4.37.28Z"/><path id="path3239" class="cls-33" d="M607.13,390.68v2c.09.56.09,1,.18,1.58.1.28.1.56.19.75l3-.09h0a2.83,2.83,0,0,0-.19-.84,8.55,8.55,0,0,1-.19-1.5v-2h-3Z"/><path id="path3241" class="cls-33" d="M610.66,391.14v2c0,.56.1,1,.1,1.59a7.68,7.68,0,0,1,.27,1.4,2.24,2.24,0,0,1-.46,1.31,4.17,4.17,0,0,1-.56.65l3,.28h0a5.41,5.41,0,0,0,.55-.75,2.79,2.79,0,0,0,.47-1.49,3.68,3.68,0,0,0-.28-1.4,8.56,8.56,0,0,1-.19-1.49v-2h-2.88Z"/><path id="path3243" class="cls-33" d="M613.73,390.21c.19.84.28,1.68.47,2.43a4.78,4.78,0,0,0,.27,1.21l3-.09h0c-.09-.38-.19-.84-.28-1.22a24.3,24.3,0,0,1-.37-2.52l-3.07.19Z"/><path id="path3245" class="cls-33" d="M617.73,390.77c.09.93.19,1.77.19,2.71h3c0-.94-.09-1.78-.18-2.71Z"/></g></g><path id="path3631" class="cls-34" d="M900.82,394,887.71,494.27s-81.46-10.54-102.47,7.93-23.62,23.71-23.62,23.71l223.45-5.32L969.26,499.5l-28.92-7.93,21-92.31Z"/><g id="g3685"><path id="path3681" class="cls-35" d="M14.93,521.9C15.51,682.43,134.84,922.29,526,923.6c381.7-.75,507.07-239.12,507.35-402.35Z"/><path id="path3683" class="cls-36" d="M0,511.17l1043.43-1.87v18L1.29,529.46Z"/></g><path id="path3629" class="cls-34" d="M750.93,486.62,814.07,278l184,15.87s26.32,23.71,18.41,58.05-44.63,113.4-44.63,113.4-18.41,21.09-44.73,21.09-176.21.19-176.21.19Z"/><path class="cls-37" d="M476.29,144c-5.32,4-12.35,17.24-12.62,24.21-.27,8.52,13.52,31,13.52,31s31.09,18.49,42.36,17.43c11.8-1.07,40.55-26.15,40.55-26.15s7.3-28,4.51-36.79c-2-6.2-11.45-16.08-17.12-18.4-8.93-3.58-28.39-4.07-37.86-2.91C500.89,133.56,483.41,138.59,476.29,144Z"/><polygon class="cls-38" points="463.67 168.22 434.47 182.65 434.47 186.04 463.13 172.48 463.67 168.22"/><polygon class="cls-38" points="445.01 215.48 474.03 194.75 477.19 199.21 449.34 216.83 445.01 215.48"/><polygon class="cls-38" points="564.61 153.7 591.47 148.76 592.47 152.83 565.6 157.38 564.61 153.7"/><polygon class="cls-38" points="561.82 185.56 584.89 204.15 582.54 206.37 560.28 189.62 561.82 185.56"/><polygon class="cls-39" points="471.78 182.17 482.24 168.13 487.55 184.3 471.78 182.17"/><polygon class="cls-40" points="469.98 176.07 477.19 153.79 481.6 164.74 469.98 176.07"/><polygon class="cls-41" points="475.66 187.4 492.06 189.24 498.37 196.79 475.66 187.4"/><polygon class="cls-42" points="562.27 155.15 545.68 153.12 551.63 166.67 562.27 155.15"/><polygon class="cls-43" points="546.86 139.46 544.6 147.89 559.65 151.08 546.86 139.46"/><polygon class="cls-44" points="563.26 159.22 555.06 174.52 560.37 174.9 563.26 159.22"/></svg>